<?xml version="1.0" encoding="utf-8"?>
<!-- Generator: Adobe Illustrator 23.1.0, SVG Export Plug-In . SVG Version: 6.00 Build 0)  -->
<svg version="1.1" id="图层_1" xmlns="http://www.w3.org/2000/svg" xmlns:xlink="http://www.w3.org/1999/xlink" x="0px" y="0px"
	 viewBox="0 0 103.5 38" style="enable-background:new 0 0 103.5 38;" xml:space="preserve">
<style type="text/css">
	.st0{fill-rule:evenodd;clip-rule:evenodd;fill:#FFFFFF;}
</style>
<path class="st0" d="M27.6,19.1l-0.1-1.2l0.3,0l0,0.4l1.3-0.1l0,0.4l-1.3,0.1l0,0.4 M27.4,17.7l-0.1-0.5l0.6-0.5l-0.7-0.1l-0.1-0.4
	l1.1,0.3l0.6-0.2l0.1,0.4l-0.6,0.1L27.4,17.7z M29.2,19.3l0,0.4l-1.6,0l0-0.4L29.2,19.3z M27.6,22.2l0.4,0.1l0-0.1
	c0-0.1,0-0.2,0-0.2c0-0.1-0.1-0.1-0.1-0.1c-0.1,0-0.1,0-0.2,0c0,0-0.1,0.1-0.1,0.2L27.6,22.2z M27.2,22.6l0.1-0.6
	c0-0.2,0.1-0.4,0.2-0.4c0.1-0.1,0.2-0.1,0.3-0.1c0.1,0,0.2,0.1,0.2,0.1c0.1,0.1,0.1,0.2,0.1,0.3c0-0.1,0.2-0.1,0.3-0.1l0,0l0.6-0.1
	L29,22.1l-0.5,0c-0.1,0-0.1,0-0.2,0.1c0,0-0.1,0.1-0.1,0.2l0,0.1l0.6,0.1L28.8,23L27.2,22.6z M27.6,20.1l0.3,0c0,0.1,0,0.1-0.1,0.2
	c0,0.1,0,0.1,0,0.2c0,0.1,0,0.2,0,0.2c0,0,0.1,0.1,0.1,0.1c0,0,0.1,0,0.1,0c0,0,0-0.1,0.1-0.1c0,0,0,0,0-0.1
	c0.1-0.2,0.1-0.3,0.1-0.4c0-0.1,0.1-0.1,0.1-0.1c0.1,0,0.1,0,0.2,0c0.2,0,0.3,0,0.4,0.2c0.1,0.1,0.1,0.3,0.2,0.5c0,0.1,0,0.2,0,0.2
	c0,0.1,0,0.2,0,0.2l-0.4,0c0-0.1,0.1-0.2,0.1-0.2c0-0.1,0-0.1,0-0.2c0-0.1,0-0.2-0.1-0.2c0,0-0.1-0.1-0.1-0.1
	c-0.1,0-0.1,0.1-0.2,0.2c0,0,0,0.1,0,0.1c-0.1,0.2-0.1,0.3-0.2,0.3c-0.1,0.1-0.2,0.1-0.3,0.1c-0.2,0-0.3,0-0.4-0.2
	c-0.1-0.1-0.1-0.3-0.1-0.5c0-0.1,0-0.2,0-0.2C27.6,20.3,27.6,20.2,27.6,20.1z M26.7,23.9l0.4-1l0.3,0.1l-0.2,0.6l0.3,0.1l0.2-0.6
	l0.3,0.1l-0.2,0.6l0.3,0.1l0.3-0.7l0.3,0.1l-0.4,1.1L26.7,23.9z M25.9,25.5l0.2-0.4l1.3,0.3l-0.9-0.9l0.2-0.4l1.2,1.2l-0.3,0.5
	L25.9,25.5z M27.1,26.6l-0.2,0.4L25.6,26l0.2-0.4L27.1,26.6z M26.6,27.3l-0.4,0.4l-1-0.3c0,0-0.1,0-0.1,0c-0.1,0-0.1-0.1-0.2-0.1
	c0.1,0,0.1,0.1,0.2,0.1c0.1,0,0.1,0.1,0.1,0.1l0.7,0.6l-0.3,0.3l-1.2-1.1l0.4-0.4l1.1,0.3c0,0,0.1,0,0.2,0.1c0.1,0,0.1,0,0.2,0.1
	c-0.1-0.1-0.2-0.1-0.2-0.1c-0.1,0-0.1-0.1-0.2-0.1l-0.6-0.6l0.3-0.3L26.6,27.3z M23.2,28.4l0.3-0.3l0.6,0.7c0.1,0.1,0.2,0.2,0.2,0.2
	c0.1,0,0.1,0,0.2-0.1c0.1-0.1,0.1-0.1,0.1-0.2c0-0.1-0.1-0.2-0.1-0.3l-0.6-0.7l0.3-0.3l0.6,0.7c0.2,0.2,0.2,0.4,0.2,0.5
	c0,0.2-0.1,0.3-0.3,0.5c-0.2,0.1-0.3,0.2-0.5,0.2c-0.2,0-0.3-0.1-0.5-0.3L23.2,28.4z M4.7,22.3l-0.1-0.5l0.9-0.6c0,0,0.1,0,0.1-0.1
	c0.1,0,0.1-0.1,0.2-0.1c-0.1,0-0.1,0-0.2,0.1c-0.1,0-0.1,0-0.2,0l-0.9,0.1l-0.1-0.4L6,20.6l0.1,0.5l-0.9,0.6c0,0-0.1,0.1-0.1,0.1
	c-0.1,0-0.1,0.1-0.2,0.1c0.1,0,0.2-0.1,0.3-0.1c0.1,0,0.1,0,0.2,0l0.8-0.1l0.1,0.4L4.7,22.3z M8,26l0.3,0.3l-0.7,0.6
	C7.4,27,7.4,27,7.4,27.1c0,0.1,0,0.1,0.1,0.2c0.1,0.1,0.1,0.1,0.2,0.1c0.1,0,0.2,0,0.3-0.1l0.7-0.6L8.9,27l-0.7,0.6
	c-0.2,0.1-0.4,0.2-0.5,0.2c-0.2,0-0.3-0.1-0.5-0.3C7,27.3,7,27.2,7,27c0-0.2,0.1-0.3,0.3-0.5L8,26z M7.1,24.4l0.2,0.4L6.7,25L7,25.5
	l0.5-0.3l0.2,0.4l-1.4,0.8L6.1,26l0.6-0.3l-0.2-0.4l-0.6,0.3l-0.2-0.4L7.1,24.4z M4.4,20.1l0-0.4l1.6,0l0,0.4L4.4,20.1z M6,19
	l-0.3,0c0-0.1,0.1-0.1,0.1-0.2c0-0.1,0-0.1,0-0.2c0-0.1,0-0.2,0-0.2c0,0-0.1-0.1-0.1-0.1c0,0-0.1,0-0.1,0c0,0,0,0.1-0.1,0.1
	c0,0,0,0,0,0.1c-0.1,0.2-0.1,0.3-0.2,0.4c0,0.1-0.1,0.1-0.2,0.1c-0.1,0-0.1,0-0.2,0c-0.2,0-0.3-0.1-0.4-0.2
	c-0.1-0.1-0.1-0.3-0.1-0.5c0-0.1,0-0.2,0-0.2c0-0.1,0-0.2,0.1-0.2l0.4,0c0,0.1-0.1,0.1-0.1,0.2c0,0.1,0,0.1,0,0.2c0,0.1,0,0.2,0,0.2
	c0,0,0.1,0.1,0.1,0.1c0.1,0,0.1-0.1,0.2-0.2c0,0,0-0.1,0-0.1c0.1-0.2,0.1-0.3,0.2-0.3c0.1-0.1,0.2-0.1,0.3-0.1
	c0.2,0,0.3,0.1,0.4,0.2c0.1,0.1,0.1,0.3,0.1,0.5c0,0.1,0,0.2,0,0.2C6,18.9,6,19,6,19z M9.4,28l-0.6,0.3l0.3,0.3L9.4,28z M9.4,27.6
	l0.4,0.4l-0.7,1.6l-0.3-0.3L9,28.9l-0.5-0.4l-0.3,0.2l-0.3-0.3L9.4,27.6z M6.2,17.5l0.3-1.2l-0.3-0.1l-0.1,0.4l-1.2-0.4l-0.1,0.4
	L6,17l-0.1,0.4L6.2,17.5z M9.6,6c0.1,0,0.1-0.1,0.1-0.1c0.5-0.3,0.8-0.5,1.1-0.5c0.1,0,0.1-0.1,0.1-0.1c0.5-0.3,0.9-0.4,1.1-0.4
	c0.1,0,0.1-0.1,0.1-0.1c0.5-0.3,0.9-0.3,1.2-0.3c0.1,0,0.1-0.1,0.2-0.1c0.5-0.2,0.9-0.2,1.2-0.2c0.1,0,0.1-0.1,0.2-0.1
	c0.6-0.2,0.9-0.2,1.2-0.1c0.1,0,0.1,0,0.2,0c0.6-0.1,0.9-0.1,1.2,0c0.1,0,0.2,0,0.2,0c0.6-0.1,0.9,0,1.2,0.1c0.1,0,0.2,0,0.2,0
	c0.6,0,0.9,0.1,1.2,0.2c0.1,0,0.2,0,0.2,0c0.6,0,0.9,0.2,1.1,0.3c0.1,0,0.2,0,0.2,0c0.6,0.1,0.9,0.2,1.1,0.4c0.1,0,0.2,0,0.2,0
	c0.6,0.1,0.9,0.3,1.1,0.5c0.1,0,0.1,0,0.2,0c0.6,0.2,0.9,0.4,1,0.6c0.1,0,0.1,0.1,0.2,0.1c0.5,0.2,0.8,0.5,1,0.7
	c0.1,0,0.1,0.1,0.2,0.1c0.5,0.3,0.8,0.5,0.9,0.8c0.1,0,0.1,0.1,0.1,0.1c0.5,0.3,0.7,0.6,0.8,0.9c0.1,0,0.1,0.1,0.1,0.1
	c0.5,0.4,0.7,0.7,0.7,0.9c0.1,0,0.1,0.1,0.1,0.1c0.4,0.4,0.6,0.7,0.7,1c0,0,0.1,0.1,0.1,0.1c0.4,0.4,0.5,0.8,0.6,1
	c0,0.1,0.1,0.1,0.1,0.1c0.3,0.5,0.5,0.8,0.5,1.1c0,0.1,0.1,0.1,0.1,0.1c0.3,0.5,0.4,0.9,0.4,1.1c0,0.1,0.1,0.1,0.1,0.1
	c0.3,0.5,0.3,0.9,0.3,1.2c0,0.1,0.1,0.1,0.1,0.2c0.2,0.5,0.2,0.9,0.2,1.2c0,0.1,0.1,0.1,0.1,0.2c0.2,0.6,0.2,0.9,0.1,1.2
	c0,0.1,0,0.1,0,0.2c0.1,0.6,0.1,0.9,0,1.2c0,0.1,0,0.2,0,0.2c0.1,0.6,0,0.9-0.1,1.2c0,0.1,0,0.2,0,0.2c0,0.6-0.1,0.9-0.2,1.2
	c0,0.1,0,0.2,0,0.2c0,0.6-0.2,0.9-0.3,1.1c0,0.1,0,0.2,0,0.2c-0.1,0.6-0.2,0.9-0.4,1.1c0,0.1,0,0.2,0,0.2c-0.1,0.6-0.3,0.9-0.5,1.1
	c0,0.1,0,0.1,0,0.2c-0.2,0.6-0.4,0.9-0.6,1c0,0.1-0.1,0.1-0.1,0.2c-0.2,0.5-0.5,0.8-0.7,1c0,0.1-0.1,0.1-0.1,0.2
	c-0.3,0.5-0.5,0.8-0.8,0.9c0,0.1-0.1,0.1-0.1,0.1c-0.3,0.5-0.6,0.7-0.9,0.8c0,0.1-0.1,0.1-0.1,0.1c-0.4,0.5-0.7,0.7-0.9,0.7
	c0,0.1-0.1,0.1-0.1,0.1c-0.4,0.4-0.7,0.6-1,0.7c0,0-0.1,0.1-0.1,0.1c-0.4,0.4-0.8,0.5-1,0.6c-0.1,0-0.1,0.1-0.1,0.1
	c-0.5,0.3-0.8,0.5-1.1,0.5c-0.1,0-0.1,0.1-0.1,0.1c-0.5,0.3-0.9,0.4-1.1,0.4c-0.1,0-0.1,0.1-0.1,0.1c-0.5,0.3-0.9,0.3-1.2,0.3
	c-0.1,0-0.1,0.1-0.2,0.1c-0.5,0.2-0.9,0.2-1.2,0.2c-0.1,0-0.1,0.1-0.2,0.1c-0.6,0.2-0.9,0.2-1.2,0.1c-0.1,0-0.1,0-0.2,0
	c-0.6,0.1-0.9,0.1-1.2,0c-0.1,0-0.2,0-0.2,0c-0.6,0.1-0.9,0-1.2-0.1c-0.1,0-0.2,0-0.2,0c-0.6,0-0.9-0.1-1.2-0.2c-0.1,0-0.2,0-0.2,0
	c-0.6,0-0.9-0.2-1.1-0.3c-0.1,0-0.2,0-0.2,0c-0.6-0.1-0.9-0.2-1.1-0.4c-0.1,0-0.2,0-0.2,0c-0.6-0.1-0.9-0.3-1.1-0.5
	c-0.1,0-0.1,0-0.2,0c-0.6-0.2-0.9-0.4-1-0.6c-0.1,0-0.1-0.1-0.2-0.1c-0.5-0.2-0.8-0.5-1-0.7C7.3,32,7.3,32,7.3,32
	c-0.5-0.3-0.8-0.5-0.9-0.8c-0.1,0-0.1-0.1-0.1-0.1c-0.5-0.3-0.7-0.6-0.8-0.9c-0.1,0-0.1-0.1-0.1-0.1c-0.5-0.4-0.7-0.7-0.7-0.9
	c-0.1,0-0.1-0.1-0.1-0.1c-0.4-0.4-0.6-0.7-0.7-1c0,0-0.1-0.1-0.1-0.1c-0.4-0.4-0.5-0.8-0.6-1C3,26.8,3,26.8,3,26.8
	c-0.3-0.5-0.5-0.8-0.5-1.1c0-0.1-0.1-0.1-0.1-0.1C2.1,25,2,24.7,2,24.4c0-0.1-0.1-0.1-0.1-0.1c-0.3-0.5-0.3-0.9-0.3-1.2
	c0-0.1-0.1-0.1-0.1-0.2c-0.2-0.5-0.2-0.9-0.2-1.2c0-0.1-0.1-0.1-0.1-0.2c-0.2-0.6-0.2-0.9-0.1-1.2c0-0.1,0-0.1,0-0.2
	c-0.1-0.6-0.1-0.9,0-1.2c0-0.1,0-0.2,0-0.2c-0.1-0.6,0-0.9,0.1-1.2c0-0.1,0-0.2,0-0.2c0-0.6,0.1-0.9,0.2-1.2c0-0.1,0-0.2,0-0.2
	c0-0.6,0.2-0.9,0.3-1.1c0-0.1,0-0.2,0-0.2c0.1-0.6,0.2-0.9,0.4-1.1c0-0.1,0-0.2,0-0.2c0.1-0.6,0.3-0.9,0.5-1.1c0-0.1,0-0.1,0-0.2
	c0.2-0.6,0.4-0.9,0.6-1c0-0.1,0.1-0.1,0.1-0.2c0.2-0.5,0.5-0.8,0.7-1c0-0.1,0.1-0.1,0.1-0.2c0.3-0.5,0.5-0.8,0.8-0.9
	c0-0.1,0.1-0.1,0.1-0.1C5.7,8.6,6,8.4,6.3,8.3c0-0.1,0.1-0.1,0.1-0.1C6.7,7.7,7,7.5,7.3,7.4c0-0.1,0.1-0.1,0.1-0.1
	c0.4-0.4,0.7-0.6,1-0.7c0,0,0.1-0.1,0.1-0.1C9,6.1,9.3,6,9.6,6z M6.8,23.9L6.4,24c0-0.1,0-0.1,0-0.2c0-0.1,0-0.1-0.1-0.2
	c-0.1-0.2-0.2-0.3-0.3-0.3c-0.1-0.1-0.3-0.1-0.4,0c-0.2,0.1-0.3,0.1-0.3,0.3c-0.1,0.1-0.1,0.2,0,0.4c0,0,0,0.1,0,0.1c0,0,0,0,0,0.1
	l0.3-0.1l-0.1-0.2L6,23.5l0.2,0.6l-0.8,0.3c-0.1-0.1-0.1-0.1-0.1-0.2c0-0.1-0.1-0.2-0.1-0.3C5,23.7,5,23.4,5,23.2
	c0.1-0.2,0.2-0.4,0.5-0.4c0.3-0.1,0.5-0.1,0.7,0c0.2,0.1,0.4,0.3,0.5,0.6c0,0.1,0.1,0.2,0.1,0.3C6.8,23.7,6.8,23.8,6.8,23.9z
	 M23.8,9.2c0,0,0.2-0.1,0.2-0.1c0,0,0.2,0.2,0.5,0.2c0,0,0.2,0.1,0.1,0.3c0,0-0.1,0.1-0.2,0.2c0,0-0.1,0-0.2,0c0,0-0.2-0.1-0.3-0.1
	c0,0-0.2,0-0.1-0.2C23.8,9.5,23.8,9.3,23.8,9.2z M23.4,9.7c0,0,0.2-0.1,0.5,0.2c0,0,0.1,0,0.2,0.1c0,0,0.2,0.1,0,0.3
	c0,0-0.1,0-0.2,0.1c0,0,0-0.1-0.1-0.1c0,0-0.3,0-0.3,0.1c0,0-0.2-0.1-0.2-0.1C23.3,10.1,23.3,9.9,23.4,9.7z M22.9,10.3
	c0,0,0.3,0,0.4,0.1c0,0,0.3,0.1,0.4,0.1c0,0,0.2,0,0.2,0.1c0,0-0.1,0.2-0.2,0.2c0,0-0.2,0-0.4,0c0,0-0.2,0.2-0.3,0.2
	c0,0-0.3,0-0.2-0.4C22.6,10.5,22.8,10.4,22.9,10.3z M25.2,10.1c0,0,0.3,0,0.4,0.1c0,0,0,0.2,0.1,0.2c0,0,0.2,0.1,0.2,0.1
	c0,0,0.1-0.1,0.2-0.1c0,0,0.2,0,0.1,0.1c0,0,0,0.1,0,0.2c0,0,0.3,0.4,0.4,0.5c0,0,0.1,0.1,0.2,0.1c0,0,0.1,0.2-0.3,0.2
	c0,0-0.1,0-0.2-0.1c0,0-0.3-0.4-0.3-0.4c0,0-0.1,0-0.1,0.1c0,0,0.3,0.3,0.4,0.3c0,0,0.2,0.1,0.1,0.4c0,0-0.2,0-0.2,0
	c0,0-0.1-0.2-0.1-0.2l-0.2-0.2l-0.1,0c0,0,0.6,0.7,0.9,0.9c0,0,0.2,0,0.2,0.1c0,0,0,0.2-0.1,0.4c0,0-0.3-0.1-0.4-0.1
	c0,0-0.3-0.5-0.4-0.5c0,0-0.2,0-0.2,0.1c0,0-0.6,0.7-0.6,0.9c0,0-0.1,0.1-0.2,0.1c0,0-0.3-0.2,0-0.6c0,0-0.1-0.3-0.6-0.7
	c0,0-0.2-0.1-0.3-0.1c0,0-0.4,0.1-0.4,0c0,0-0.3-0.1-0.3-0.4c0,0,0.1-0.1,0.2-0.2c0,0,0.3,0.2,0.4,0.1c0,0,0.4-0.1,0.6-0.1
	c0,0,0.2-0.1,0.2-0.2c0,0,0.1-0.1-0.3-0.2c0,0,0-0.1-0.1-0.2c0,0,0-0.2,0.1-0.2c0,0,0.2,0,0.3,0.2c0,0,0.4,0.2,0.6,0.4
	c0,0,0.1,0.1,0.2,0c0,0-0.2-0.3-0.4-0.3c0,0,0-0.2-0.1-0.2c0,0,0-0.2,0.1-0.2c0,0,0.2,0,0.2,0c0,0,0.1,0.3,0.2,0.3
	c0,0,0.3,0.1,0.3,0c0,0-0.1-0.2-0.4-0.2C25.3,10.6,25,10.4,25.2,10.1z M25,11.3c0.2,0.2,0.3,0.3,0.4,0.5c0,0,0,0.2-0.2,0.1
	c0,0-0.1-0.1-0.1-0.2c0,0-0.1-0.1-0.2-0.1c0,0-0.2-0.1-0.1-0.2C24.8,11.4,24.8,11.3,25,11.3z M24.9,12c0,0,0.2,0,0.2,0.3
	c0,0-0.1,0.1-0.2,0.2c0,0-0.1-0.2-0.2-0.2C24.8,12.3,24.7,12.1,24.9,12z M24.7,11.8c-0.1-0.1-0.1-0.2-0.3,0c0,0-0.1,0.2,0.2,0.1
	C24.5,11.9,24.6,11.9,24.7,11.8z M19.5,15.6l-0.1,0l0,0h-0.1l-0.1,0l-0.1,0l0,0l-0.1,0l-0.1,0l0,0l0,0l0,0l0,0l-0.1,0l-0.1,0l0,0
	l-0.1,0l-0.1,0l-0.1,0l0-0.1l0-0.1l0,0l-0.1-0.1l0-0.1l0,0l0,0l0-0.1l0-0.1l0-0.1l0-0.1l0-0.1l0-0.1l0-0.1l0-0.2l0-0.1l0-0.1v-0.1
	l0-0.1l0-0.1l0-0.1l0-0.1l0-0.1l0,0l0-0.1l0-0.2l0-0.1v-0.1l0-0.1v-0.1l0-0.1l0.1-0.1l0.1,0l0.1,0l0.1,0l0.1,0l0.1,0l0.1,0l0,0
	l0.1,0l0.1,0l0.1,0l0.1,0l0.1,0l0.1-0.1l0.1-0.1l0-0.1l0.1,0l0.1,0l0,0l0,0l0.1,0l0,0l0,0.1l0,0l0,0.1l0,0l0,0.1l0,0.1l0,0.1l0,0.1
	l0.1,0.1l0,0l0.1,0l0.1,0l0.1,0.1l0.1,0.1l0.2,0.1l0.1,0.1l0,0.1l0,0.1l0,0.1l0,0.1l0,0.1l-0.1,0.1l0,0.1l0,0.1l0,0.1l0,0.1l-0.1,0
	l-0.1,0l-0.1,0.1l0,0.1l0,0.1l0,0.1l-0.1,0.1L20,14.9l0,0.1v0.1l0,0.1l0,0.1l0,0.1l-0.1,0.1l-0.1,0l-0.1,0.1L19.5,15.6L19.5,15.6z
	 M19.6,15.3l-0.1,0l-0.1,0l-0.1,0l-0.1,0L19,15.2l-0.1,0l-0.1,0l-0.1,0l-0.1,0l-0.1,0l-0.1,0l-0.1,0l0,0l0-0.1l0-0.1l0-0.1l0-0.1
	l0,0l0,0l0.1,0h0.1l0,0l0,0l0.1,0l0.1,0h0.1l0.1,0l0.1,0l0.1,0l0.1,0l0.1,0l0.1,0l0.1,0l0.1,0l0.1,0l0.1,0l0,0l0,0l0,0l0,0V15l0,0.1
	l0,0l-0.1,0l0,0.1L19.6,15.3L19.6,15.3z M19.9,14.6l-0.1,0l0,0l-0.1,0l-0.1,0l-0.1-0.1l-0.1,0l-0.1,0l-0.2,0l-0.2,0h-0.1l-0.1,0
	l-0.1,0l0,0l-0.1,0l-0.1,0l-0.1,0l0,0l0-0.1l0.1-0.1l0.1-0.1h0.1l0.1,0l0.1,0l0,0l0.1,0l0.1,0l0,0l0.1,0l0.1,0l0.1,0h0.1l0,0l0.1,0
	l0.1,0l0.1,0l0.1,0l0.1,0l0,0l0,0.1l0,0v0.1l0,0.1l0,0.1L19.9,14.6L19.9,14.6z M20.2,13.9l-0.1,0l-0.1,0l-0.1,0l-0.1,0l-0.1,0l0,0
	l-0.1-0.1l-0.1,0l0,0l-0.1,0h-0.1l-0.1,0h-0.1l-0.1,0l-0.1,0l-0.1,0l-0.1,0l-0.1,0l0,0l0,0l0,0l0,0v0l0,0l0,0l0.1,0l0,0l0,0l0.1,0
	l0.1,0l0.1,0l0.1,0l0.1,0l0.1,0l0.1,0h0.1l0.1,0l0,0h0.1l0.1,0l0.1,0l0,0l0.1,0l0,0l0.1,0l0.1,0l0,0l0,0l0.1,0l0.1,0l0.1,0l0,0.1
	l0,0l0,0l0,0.1L20.2,13.9L20.2,13.9L20.2,13.9z M23.1,24.1L23.1,24.1L23,24l0-0.1l0-0.1v-0.1l0-0.1l0-0.1l0-0.1l0-0.1l0-0.1l0-0.1
	l0-0.1l0-0.1l0.1-0.1l0.1-0.2l0.1-0.2l0.1-0.1l0.1-0.2l0.1-0.2l0-0.1l0-0.2l0-0.1l0-0.1v-0.1l0-0.1l0.1,0l0.1,0l0.1,0.1l0,0.1l0,0.1
	l0,0.1l0,0.1l0,0.1l0,0.1l0,0.1l0,0.1l0,0.2l0,0.2l-0.1,0.1l-0.1,0.2l-0.1,0.1L23.7,23l-0.1,0.1l0,0.1l0,0.1l0,0.1l0,0.1l0,0.1
	l0,0.1l-0.1,0.1l0,0.1l0,0.1l0,0.1L23.2,24L23.1,24.1z M22.6,23.6L22.6,23.6l-0.1-0.1l0-0.1l0-0.1v-0.1l0-0.1l0-0.1l0-0.1l0,0l0.1,0
	l0,0l0.1,0l0,0l0,0.1v0.1v0.1l0,0.1L22.6,23.6L22.6,23.6z M23.6,21.7L23.6,21.7l-0.1,0.1l-0.1,0l0,0l0,0l-0.1,0l-0.1,0l0,0l0,0
	l0-0.1l0-0.1l0-0.1l0,0l0-0.1l0-0.1l0,0l0,0l0.1,0l0.1,0l0,0l0,0.1l0,0.1l0,0.1L23.6,21.7L23.6,21.7z M23.1,22.6L23.1,22.6l-0.1,0
	l-0.1,0l-0.1,0h0l-0.1,0l-0.1,0l-0.1,0l-0.1,0l-0.2,0l-0.2,0L22,22.8l-0.2,0.1l-0.1,0l-0.1,0l-0.1,0l-0.1,0.1l-0.1,0.1l-0.1,0l0,0
	l0,0l0-0.1l0-0.1l0,0l0-0.1l0-0.1l0.1-0.1l0.1-0.1l0.2-0.1l0.1,0l0.1,0l0.1,0l0.1,0l0.1,0l0.1,0l0.1,0l0.1,0l0.1,0l0.1,0l0,0
	c0,0,0-0.1,0-0.1c0,0,0-0.1,0-0.1l0-0.1l-0.1,0l-0.1,0l0,0l-0.1,0l-0.1,0l0,0l-0.1,0l0,0l-0.1,0l0,0l-0.1,0l-0.1,0l-0.1,0l-0.1,0
	l-0.1-0.1l0-0.1l0-0.1l0-0.1l0-0.1l0-0.1l0.1,0l0.1,0l0.1,0l0,0l0.1,0l0.1,0l0.1,0l0.1,0l0.1,0.1l0.1,0.1l0.1,0.1l0.1,0.1l0.1,0
	l0.1,0l0.1,0l0,0l0-0.1l0-0.1l-0.1-0.1l-0.1-0.1l-0.1-0.1l-0.1-0.1l0-0.1l0-0.1l0-0.1l0-0.1v-0.1l0-0.1l0-0.1l0.1,0l0.1,0l0.1,0
	l0.1,0l0,0.1l0,0.1v0.1l0,0.1l0,0.1l0,0.1l0,0.1l0,0.1l0,0.1l0,0.1l0,0.1l0,0.1l0,0.1l0,0.1l0,0.1l0,0.1l0,0.1c0,0,0,0,0,0
	c0,0,0,0,0,0l0.1,0l0,0l0.1,0l0,0l0,0.1l0,0l0,0.1L23.1,22.6L23.1,22.6z M20.1,27.1L20.1,27.1V27l0-0.1l0-0.1l0-0.1l0.1-0.1l0,0
	l0.1-0.1l0.1-0.1l0.1-0.1l0.1-0.1l0.1-0.1l0.1-0.1v-0.1l-0.1-0.2l-0.1-0.1l-0.1-0.2l-0.1-0.2l-0.1-0.1l-0.1-0.2L20,24.9L20,24.8
	l-0.1-0.1l-0.1,0l-0.1,0l-0.1,0.1l-0.1,0.1l-0.2,0.1l-0.2,0.1l-0.2,0.1l-0.1,0l-0.2,0l-0.1,0.1l-0.1,0.1l-0.1,0.1l-0.1,0.1l-0.1,0
	l0,0.1v0.1l0,0.1l0,0.1l0,0.1l0,0.1l0,0.1l0,0.1l0,0l0.1,0.1l0,0.1l0,0.1l0,0.1l0,0.1l0.1,0.1l0.1,0.1l0.1,0.1l0.1,0.1l0.1,0l0.1,0
	l0.1,0l0.1-0.1l0.1,0l0.1,0l0.1,0l0,0l0.1,0l0.1,0.1l0.1,0L20.1,27.1L20.1,27.1z M20.3,26.2L20.3,26.2l0-0.2l0-0.1l-0.1,0L20.1,26
	L20,26l-0.1,0l-0.1,0.1l-0.2,0.1l-0.1,0l-0.1,0.1l-0.1,0.1l-0.1,0.1l-0.1,0l-0.1,0l-0.1,0l-0.1,0.1l-0.1,0.1l0,0.1l0,0.1l0.1,0
	l0.2,0l0.1-0.1l0.1-0.1l0.1-0.1l0.1-0.1l0.2-0.1l0.1-0.1l0.1,0l0.1-0.1L20.3,26.2L20.3,26.2z M20.1,25.7L20.1,25.7l-0.2,0.1
	l-0.1,0.1L19.6,26L19.5,26l-0.1,0l-0.2,0.1l-0.1,0L19,26.2l-0.1,0.1l0,0.1l-0.1,0.1h-0.1l0-0.1l0-0.1l0.1-0.1l0.2,0L19,26l0.1-0.1
	l0.1,0l0.1,0l0.1-0.1c0,0,0,0,0.1,0c0,0,0.1-0.1,0.1-0.1l0.1,0l0.1-0.1l0.1-0.1l0.1,0l0,0l0.1,0l0.1,0l0.1,0l0,0.1L20.1,25.7
	L20.1,25.7z M19.9,25.2L19.9,25.2l-0.2,0.1l-0.1,0.1l-0.1,0.1l-0.1,0.1l-0.2,0.1L19,25.7L19,25.7l-0.1,0.1l-0.1,0l-0.1,0l-0.1,0
	l-0.1,0l0-0.1l0-0.1l0.1-0.1l0.1-0.1l0.1-0.1l0.2-0.1l0.1-0.1l0.1-0.1l0.1,0l0.1,0l0.1,0l0.1-0.1l0,0l0.1,0l0.1,0l0.1,0l0,0
	L19.9,25.2L19.9,25.2z M19.9,24.5L19.9,24.5l-0.1,0l-0.1,0l0-0.1l0-0.1l0-0.1l0-0.1l0,0l0-0.1l0-0.1l0,0l0.1,0l0.1,0l0,0l0,0.1
	l0,0.1l0,0.1l0,0.1l0,0.1L19.9,24.5L19.9,24.5z M18.8,25.1l-0.1,0l0,0l0,0l0-0.1v-0.1l0-0.1l0,0l0,0l0,0l0,0l0.1,0l0,0l0,0l0,0.1
	L18.8,25.1L18.8,25.1L18.8,25.1z M17.8,25.7L17.8,25.7L17.8,25.7l-0.1-0.1l0-0.1l0,0l0-0.1l0-0.1l0-0.1c0-0.1,0.1-0.1,0.1-0.1l0.1,0
	l0,0v-0.1l0,0l0.1-0.1l0,0h0.1l0,0l0,0l0,0.1l0,0.1l0,0.1l0,0.1l0,0.1l0,0.1l-0.1,0.1L18,25.6L17.8,25.7L17.8,25.7z M19.2,24.7
	L19.2,24.7l0.1-0.1l0-0.1l0-0.1v-0.1l0,0l0-0.1l0-0.1l0,0l-0.1,0l-0.1,0l0,0l0,0l0,0l-0.1,0l-0.1,0l-0.1,0l-0.1,0l-0.2,0l-0.2,0
	l-0.1,0l-0.1,0l-0.1,0.1L18,24.4l-0.1,0.1l0,0.1l0,0.1l0,0.1l0,0.1l0,0.1l0,0.1l0.1,0l0.1,0l0-0.1l0.1-0.1l0.1,0l0.1-0.1l0,0l0.1,0
	l0.1,0l0.1,0l0,0l0.1,0l0,0l0.1,0c0,0-0.1,0,0.1,0c0.1,0,0.1,0,0.1,0l0.1,0l0.1,0l0,0.1l0.1,0.1L19.2,24.7z M9.6,18.7L9.6,18.7
	l-0.1-0.1l-0.1-0.1l0-0.1l0-0.1l0-0.1l0,0l0,0l0.1,0l0,0l0-0.1l0-0.1l0-0.1l0-0.1l0,0l0.1,0h0.1l0.1,0L9.7,18l0,0.1l0,0.1l0,0.1
	l0,0.1l0,0.1l0,0.1l0,0.1L9.6,18.7L9.6,18.7z M10.2,19L10.2,19l-0.1-0.2l0-0.1l0-0.1l0-0.1l0-0.1l0-0.1l0.1-0.1l0,0h0.1l0.1,0
	l0.1,0.1l0,0l0.1,0l0.2,0h0.1l0.1,0l0.1,0l0.1,0h0.1l0.1,0l0,0v-0.1l0-0.1l0-0.1l0-0.1l0-0.1l0-0.1l0-0.1l0-0.1l0,0l0.1,0l0,0l0,0
	l0,0l0-0.1l0-0.1l0,0l0-0.1l0-0.1l0,0l0.1-0.1l0.1,0l0.1,0l0,0l0,0.1l-0.1,0.1l0,0.1l0,0.1l0,0l0.1,0h0.1l0.1,0l0,0l0,0l0-0.1l0,0
	l0,0l0-0.1l0-0.1l0-0.1l0-0.1l-0.1-0.1l-0.1,0l-0.1,0l0,0L12.1,17l0-0.1v-0.1l0-0.1l0.1-0.1l0.1,0l0.1,0l0.1,0l0.1,0l0,0.1l0,0
	l0,0.1l0.1,0.1l0.1,0l0,0.1l0,0.1l0,0.1l0,0.1l0,0.1l0,0.1l-0.1,0.1l-0.1,0.1l-0.1,0.1l-0.1,0.1l-0.1,0.1l-0.1,0.1l-0.1,0l-0.1,0
	l0,0L12,18l-0.1,0L11.8,18l0,0.1l0,0l0.1,0.1l0,0.1l0,0.1l0,0.1l-0.1,0.1l0,0l0,0l-0.1,0l0,0.1l0,0l0,0.1l0,0.1l0,0.1v0.1l0,0.1
	l0,0.1l0,0.1l-0.1,0l-0.1,0l-0.1,0l-0.1,0l-0.1-0.1l-0.1-0.1l0-0.1l-0.1-0.1l-0.1-0.1l-0.1,0l-0.1,0l-0.1,0h-0.2l-0.1,0l-0.1,0l0,0
	l0,0.1l0,0.1v0.1l-0.1,0l-0.1,0L10.2,19L10.2,19z M9.7,17.7l-0.1-0.1l-0.1-0.1l0-0.1l0-0.1l0-0.1l0-0.1l0,0l0-0.1v-0.1l0-0.1l0,0
	l0-0.1l0-0.1l0-0.1l0-0.1l0.1-0.1l0.1-0.1l0.1-0.1l0.1-0.2l0-0.1l0-0.1l0-0.1l0.1-0.1l0.1,0l0.1,0l0,0.1l0,0.1l0,0.1l0,0.1l-0.1,0.1
	l0,0l0,0.1l0,0.1l0,0.1l0.1,0l0.1,0l0-0.1l0.1-0.1l0.1-0.1l0.1-0.1l0.1-0.1l0.1-0.1l0.1,0l0.1,0l0.2,0.1l0.1,0.1l0.1,0.1l0,0.1
	l0.1,0l0,0.1l0,0.1l0,0.1l0,0.1l-0.1,0.2l-0.1,0.1l-0.1,0.2l0,0.1l0,0.1l0,0.1l0,0.1l0,0l0,0.1l0.1,0l0,0l0,0v-0.1l0-0.1l0-0.1
	l0.1-0.1l0.1-0.1l0-0.1l0-0.1l0-0.1l0-0.1l0-0.1l0.1,0l0.1,0h0.1l0.1,0l0,0.1v0l-0.1,0.1l0,0.1l0,0.1l0,0.1l-0.1,0.1l-0.1,0.1l0,0.1
	l0,0.1l0,0.1l0,0l0,0.1l0,0.1l-0.1,0.1l0,0.1l0,0.1v0l-0.1,0l0,0l-0.1-0.1v-0.1l0-0.1l0,0l0-0.1v-0.1l0,0l-0.1,0l0,0l0,0l0,0.1v0.1
	l0,0l-0.1,0l-0.1,0l0,0l0,0h-0.1l-0.1,0l-0.1,0l0,0l-0.1,0l-0.1,0l-0.1,0l-0.1,0l0,0l0,0l-0.1,0v-0.1v-0.1l0-0.1l0-0.1l0-0.1l0-0.1
	l0-0.1l0-0.1v-0.1l0,0l-0.1,0l0,0.1l0,0.1l0,0.1l0,0.1l0,0.1l0,0.1l0,0.1l0,0.1l0,0l0,0.1l0,0L9.7,17.7L9.7,17.7z M10.7,17.5
	L10.7,17.5L10.7,17.5l0.1-0.1l0-0.1l0-0.1l0-0.1l0-0.1l0-0.1L11,17l0-0.1l0-0.1l0-0.1l0-0.1l0-0.1l0,0l0,0l0,0l0,0L11,16.7l-0.1,0.1
	l0,0l0,0l-0.1,0l-0.1,0l0,0l0,0h0l0,0l0,0l0,0.1l0,0l0,0.1l0,0.1l0,0l0,0.1l0,0.1l0,0.1L10.7,17.5L10.7,17.5L10.7,17.5z M10.5,17.5
	L10.5,17.5l-0.1,0l0-0.1l0-0.1l0-0.1l0.1,0l0.1,0l0,0.1v0.1L10.5,17.5L10.5,17.5z M10.9,16.5L10.9,16.5l-0.1,0l0,0v-0.1l0-0.1l0,0
	l0.1,0l0,0l0,0l0,0.1L10.9,16.5L10.9,16.5L10.9,16.5z M15.3,27.4L15.3,27.4l0.1-0.1l0-0.1l0.1-0.1l0-0.1l0-0.1l0.1-0.1l0.1-0.1
	l0-0.1l0-0.1l0-0.1l-0.1,0l-0.1,0l-0.1,0l-0.1,0l-0.1,0l0-0.1l0-0.1l0.1-0.1l0-0.1l0.1-0.1l0.1-0.1l0.2,0l0.1,0h0.1l0.1,0l0.1-0.1
	l0.1-0.1l0-0.1l-0.1-0.1l-0.1,0l-0.2,0l-0.1,0l-0.1,0l0-0.1v-0.1l0-0.1l0.1-0.1l0.1-0.1l0.1-0.1l0.1-0.1l0-0.1l0-0.1l-0.1-0.1
	l-0.1,0h-0.1l-0.1,0.1l-0.1,0.1l0,0.1l-0.1,0.1L15.2,25l0,0.1l0,0.1l0,0.1l0,0.1l0,0.1l0,0.1l0,0.1l0,0.1l0,0.1l-0.1,0.1l-0.1,0.1
	l-0.1,0.1l-0.1,0.1l0,0.1l0,0.1l0,0.1l-0.1,0.1l-0.1,0.1l-0.1,0l0,0.1v0.1l0,0.1l0,0.1l0,0.1l0.1,0l0.1-0.1l0.1-0.1l0-0.1l0-0.1
	l0-0.1l0-0.1l0-0.1l0-0.1l0.1,0l0.1,0l0.1,0l0,0.2l0,0.1l0,0.1l0,0.1l0.1,0.1L15.3,27.4L15.3,27.4z M13.8,27.1L13.8,27.1l0.1-0.1
	l0-0.1l0-0.1l0-0.1l0.1-0.1l0-0.1l0-0.1l0-0.1l0.1-0.1l0.1-0.1l0-0.1l0-0.1l0-0.1l0-0.1l0-0.1l0-0.1l0.1-0.1l0.1-0.1l0.1-0.1
	l0.1-0.1l0.1,0l0.1,0l0,0l0-0.1l-0.1,0l-0.1,0l-0.1,0l-0.1,0.1l-0.1,0.1l-0.1,0.1l-0.1,0.1l-0.1,0.1l0,0L14,25.6l-0.1,0l-0.1,0
	l0-0.1l0.1-0.1l0.1-0.1l0.2-0.1l0.2-0.2l0.1-0.1l0.1,0l0.1,0l0-0.1l0-0.1l-0.1-0.1l-0.1,0l-0.1,0.1l-0.1,0.1l-0.1,0.1l-0.1,0.1
	L14,25.1l-0.1,0.1l-0.1,0.1l-0.1,0.1l-0.1,0l-0.1,0l-0.1,0l0-0.1l0-0.1l0-0.1l0.1-0.1l0.1-0.1l0.1-0.1l0.1-0.1l0.1-0.1l0.1-0.1
	l0.2-0.1l0.2,0l0.2,0l0.1,0l0.1-0.1l0-0.1l0-0.1l-0.1,0l-0.1,0l-0.2,0.1L14,24.2l-0.1,0.1l-0.1,0.1l-0.1,0.1l-0.1,0.1l-0.1,0.1
	l-0.1,0.1l-0.1,0.1C13,24.9,13.1,25,13,25.1l0,0.1l-0.1,0.1l-0.1,0.1l-0.1,0.1l0,0.1l0.1,0.1l0.1,0.1l0.1,0.1l0.1,0l0.1,0l0.1,0
	l0.2,0l0.1,0.1l0.1,0.1l0.1,0.1l0.1,0.1l0,0.1l0,0.1l-0.1,0.1l-0.1,0.1l-0.1,0.1v0.1l-0.1,0.1l-0.1,0.1l-0.1,0.1l0,0.1l0.1,0.1
	l0.1,0.1C13.7,27.1,13.8,27.2,13.8,27.1z M13.8,15.8L13.8,15.8l-0.1-0.1l0,0l0-0.1v-0.1l0-0.1l0-0.1l0-0.1l0-0.1l0-0.1l0-0.2
	l-0.1-0.2l-0.1-0.2l-0.2-0.3l-0.1-0.2L13,13.8l-0.1-0.2l-0.1-0.1l0-0.1l0-0.1l0,0l0.1-0.1l0.2-0.1l0.2-0.1l0.3-0.1l0.2-0.1l0.3-0.1
	l0.2-0.1l0.2-0.1l0.2-0.1l0.1,0l0.1,0l0.1,0l0.1,0l0,0.1l0,0.1l-0.1,0.1l-0.1,0.1L15,12.7l-0.1,0l-0.2,0.1l-0.2,0.1l-0.2,0.1l-0.1,0
	l0,0.1l0.1,0l0.1,0l0.1,0l0.1,0l0.1,0l0.1-0.1l0.1,0l0.1,0l0.1,0l0.1,0l0.1,0l0.1,0l0,0l0,0.1l0,0.1l0,0.1v0.1l0,0.1l0,0.1l0,0.2
	l0,0.1l0,0.1h0.1l0.1,0l0,0l0,0.1l0,0.1V14l0,0.1l0,0l0.1,0h0.1l0.1,0l0.1,0l0.1,0l0,0l0,0l0,0.1v0.1l0,0.1l-0.1,0h-0.1h-0.1l-0.1,0
	l-0.1,0l0,0l0,0.1l0,0.1l0,0.1l0,0.1l0,0.1l0,0.1l-0.1,0.1l-0.1,0.1l-0.1,0.1l-0.1,0l-0.1,0l-0.1,0l-0.1,0l-0.1,0l0-0.1l0-0.1l0-0.1
	l0.1-0.1l0.1,0l0.1,0l0.1-0.1l0.1-0.1l0-0.1l0-0.1v-0.1l0,0H15H15l-0.1,0l-0.1,0.1l-0.1,0.1l0,0L14.6,15l-0.1,0l-0.1,0l0,0l0,0
	l0-0.1l0-0.1l0.1-0.1l0.1,0l0.1,0l0.1,0l0,0l0,0l-0.1,0l-0.1,0l-0.1,0l0,0l0,0l0,0v-0.1l0,0l0,0l0,0h0l0,0l0,0l0,0l-0.1,0l-0.1,0
	l0,0l0,0l-0.1-0.1l0-0.1l0-0.1l-0.1-0.1l0,0l0,0l0-0.1l0-0.1v-0.1l0-0.1l0.1-0.1l0.1,0l0,0l0-0.1l0,0l-0.1,0l-0.1,0l-0.1,0.1
	l-0.1,0.1l-0.1,0.1l0,0l0,0.1l0,0.1l0,0.1l0.1,0.1l0.1,0.2l0.1,0.2l0.1,0.2l0.1,0.2l0,0.2l0,0.2l0,0.2v0.1l0,0.1l0,0.1L13.8,15.8
	L13.8,15.8z M15.2,14.3l-0.1,0l0,0v0l0,0l0,0l0.1,0l0.1,0C15.2,14.1,15.2,14.2,15.2,14.3L15.2,14.3z M15,14C15,14,15,14,15,14
	c-0.1,0-0.1,0-0.1,0c0,0,0,0,0,0c0,0,0,0,0,0c0,0,0,0,0,0c0,0,0,0,0.1,0c0,0,0,0,0,0c0,0,0,0,0.1,0c0,0,0,0,0,0c0,0,0,0.1,0.1,0.1
	C15.1,13.9,15.1,13.9,15,14C15.1,13.9,15.1,13.9,15,14C15.1,14,15,14,15,14z M15,13.5L15,13.5l-0.3,0.2l-0.1,0.1l-0.1,0.1l-0.1,0.1
	l-0.1,0l-0.1,0l-0.1,0l0-0.1l0.1-0.1l0.1-0.1l0.1-0.1l0.1,0l0.1-0.1l0.1,0l0.1,0l0.1,0l0.1,0L15,13.5L15,13.5z M14.9,13.2L14.9,13.2
	l-0.2,0.1l-0.1,0l-0.1,0.1l-0.1,0l-0.1,0l-0.1,0l-0.1,0l-0.1,0l-0.1,0l-0.1,0l-0.1,0l0-0.1l0.1-0.1l0.1-0.1l0.1,0l0.1-0.1l0.1,0
	l0.1,0l0.1,0h0.1l0,0L14.9,13.2L14.9,13.2L14.9,13.2z M11.6,23.9L11.6,23.9l-0.1,0l0,0l-0.1-0.1l-0.1-0.1l0,0l0,0l0,0l0,0l0-0.1l0,0
	l0,0l0,0l0,0l0,0l0,0l0,0l0,0l0,0l0,0l0,0l0,0l0,0l0,0l0,0l0,0l0,0l0,0l0,0l0,0l0,0l0,0l0,0l0,0l0,0l0,0l-0.1,0l-0.1,0l0,0l0,0l0,0
	l0,0l0,0l0,0l0,0l0,0l0,0l0,0h-0.1l0,0l0,0l0,0l0,0l0,0l0,0l-0.1,0l-0.1,0l-0.1,0l0,0l0,0l0,0l0,0l0,0l0,0l0,0l0-0.1l0-0.1l0-0.1
	l0,0l0,0l0-0.1l0.1-0.1l0.1,0l0.1,0l0.1,0l0,0l0,0l0,0l0.1,0l0.1,0l0,0l0,0l0,0l0,0l0,0l0-0.1l0,0l-0.1,0l0,0l0,0l0,0l0,0l0,0l0,0
	l0,0l0,0l0,0l0,0l0,0l0,0l0,0l0,0l0,0l0,0l0,0l0,0l0,0l0,0l0,0l-0.1,0l0,0l0,0l0,0l0-0.1l0,0l0,0l0,0l0,0l0,0l0,0l0,0l0,0l0,0l0-0.1
	l0,0l0,0l0,0l0-0.1l0-0.1l0,0l0-0.1l0-0.1l0-0.1l0,0l0-0.1l0,0l0,0l0,0l0,0l0,0l0-0.1l0,0l0,0l0.1,0l0.1,0l0.1,0l0.1,0l0,0.1l0,0.1
	l0,0.1l0,0.1l0,0l0,0.1l0,0.1l0,0.1l0,0.1l0,0l0,0l0.1,0l0.1,0l0,0l0.1-0.1l0,0l0.1,0l0-0.1l0,0l0,0l0,0l0,0l0,0l0,0l-0.1,0l-0.1,0
	l-0.1,0l-0.1,0l0,0l-0.1,0l0,0l0,0l0,0v0l0,0l0,0l0.1,0l0.1,0l0.1,0h0.1l0.1,0l0.1,0l0.1,0l0.1,0l0.1,0l0.1,0l0.1,0l0,0l0.1,0l0-0.1
	l0-0.1l0-0.1l0-0.1l0-0.1l0-0.1l0,0l0,0l0.1,0l0.1,0l0.1,0l0.1,0h0.1l0.1,0l0,0l0,0l0,0l0,0.1l0,0.1l0,0l0,0l0,0l0,0l0,0.1l0,0.1
	l0,0.1v0.1l0,0l0.1,0l0,0l0,0l0,0l0,0l0,0l0,0l0,0l0.1,0l0,0l0,0.1l0,0.1l0,0.1l0,0l-0.1,0l-0.1,0l-0.1,0l-0.1,0l-0.1,0l-0.1,0
	l-0.1,0h-0.1l-0.1,0l0,0l0,0l0,0l0,0l0,0l0,0L11,21.9L10.9,22l-0.1,0.1l-0.1,0.1l-0.1,0.1l0,0.1l0,0l-0.1,0.1l0,0l0,0l0,0l0,0l0,0
	l0.1,0.1l0,0l0,0l0,0l0,0.1l0,0l0,0.1l0,0l0,0l0,0l0,0l0-0.1l0,0l0,0l0,0l0,0l0,0l0,0l0-0.1l0,0l0,0l0,0l0,0l0,0l0,0l0,0l0,0l0.1,0
	l0,0l0,0l0,0l0,0l0,0l0-0.1l0,0l0,0l0,0l0,0l0-0.1l0,0l0,0l0,0l0,0l0.1-0.1l0,0l0,0l0,0l0,0l0.1,0l0.1,0l0,0c0,0,0,0,0,0
	c0,0,0.1,0,0.1,0l0.1,0l0,0l0,0l0,0l0,0l0,0l0.1,0l0,0l0,0l0,0l0,0l0,0l0,0l0,0l0,0l0,0l0,0l0.1,0l0.1,0l0,0l0,0l0,0l0,0l0,0l0,0
	l0,0l0,0l0.1,0l0.1,0l0,0l0,0l0,0l0,0l0,0l0,0l0,0l0,0l0,0l0,0.1l0,0.1v0.1l0,0l0,0l0,0l0,0l0,0l0,0l0,0l0,0v0l0,0l0,0l0,0l0,0l0,0
	l0,0l0,0l0,0l0,0l0,0l0,0l0,0l0,0l0,0l0,0l0,0l0,0l0,0l0,0l0,0l0,0l0,0l0,0l0,0l0,0l0,0l0,0l0,0l0,0l0,0l0,0l0,0.1l0,0l0,0l0,0l0,0
	l0,0l0,0l0,0l0,0l0,0l0,0l0,0l0,0.1l0,0l0,0l0,0.1l0,0l0,0l-0.1,0l-0.1,0l0,0l0,0l0,0l0,0l0,0l0,0l0,0l0,0h0l0,0l0,0l0,0l0,0l0,0
	l0,0l0,0l0,0v0l0,0l-0.1,0l-0.1,0l-0.1,0l0,0l0,0l0,0l0,0l0,0l-0.1,0l0,0l0,0l0,0l0,0l-0.1,0l0,0l0,0l0,0l0,0l0,0l0,0l0,0l0,0l0,0
	c0,0,0,0.1,0,0c0,0,0.1,0.1,0.1,0.1l0.1,0.1l0.1,0.1l0.1,0.1l0.1,0l0.1,0l0,0l0,0l0,0l0,0.1l0,0.1l0,0.1L11.6,23.9L11.6,23.9
	L11.6,23.9z M9.7,22.5L9.7,22.5l-0.1,0l0,0l-0.1,0l0,0l0,0l0,0l0,0l0,0l0,0l0,0l0,0v0v0l0,0l0,0l0,0l0,0l0,0l0,0l0,0l0,0l0,0l0,0
	l0,0l0,0l0,0l0,0l0,0l0,0l0,0l0,0l0,0l0,0L9.7,22.5L9.7,22.5L9.7,22.5C9.7,22.4,9.7,22.5,9.7,22.5z M11.9,22.8L11.9,22.8L11.9,22.8
	l-0.1-0.1l0-0.1l0,0l0,0l0.1,0h0.1l0,0l0,0.1L11.9,22.8L11.9,22.8L11.9,22.8L11.9,22.8z M11.6,22.5L11.6,22.5L11.6,22.5l-0.1,0l0,0
	l0,0v0v-0.1l0,0l0,0l0,0l0,0l0.1,0l0,0L11.6,22.5L11.6,22.5L11.6,22.5z M11.9,22.3L11.9,22.3l-0.1,0l0,0l0,0l0,0l0,0v0l0,0l0,0h0
	l0,0l0,0l0,0l0,0V22.3L11.9,22.3L11.9,22.3z M12.2,22.6L12.2,22.6l-0.1,0l0,0l0,0l0,0l0,0l0,0l0,0l0,0l0,0l0,0l0,0l0,0L12.2,22.6
	L12.2,22.6z M23.1,18.7L23.1,18.7l-0.1,0l0,0l0,0l0,0l0,0l0,0l0,0l0-0.1l0,0l0,0l0,0l0,0l0,0l0,0l0,0l0,0l0,0l0,0l0,0l0,0l0,0l0,0
	l0,0l0,0l0,0l0,0l0,0l0,0l0,0l0,0l0,0l0,0l0,0l0,0l0,0l0,0l0,0l0,0l0,0l0,0l0,0l0,0l0,0l0,0l0,0l0,0l0,0l0,0c0,0,0,0,0,0
	c0,0,0,0,0,0s0,0,0,0c0,0,0,0,0,0l0,0l0,0h0l0,0l0,0c0,0,0,0,0,0l0,0v0.1v0.1L23.1,18.7L23.1,18.7L23.1,18.7L23.1,18.7L23.1,18.7
	L23.1,18.7z M22.2,18.8L22.2,18.8l0,0.1l0,0l0,0.1l0,0l-0.1,0l-0.1,0l0-0.1l0-0.1l0-0.1l-0.1-0.1l0-0.1l0,0l0,0l0-0.1l0,0l0-0.1
	l0-0.1l0-0.1l0-0.1l0-0.1l0-0.1V18l0,0l0-0.1l0.1,0h0.1l0.1,0l0,0l0,0l0.1,0l0.1,0l0,0l0.1-0.1l0-0.1l0-0.1l0-0.1l0-0.1l0-0.1l0-0.1
	l0-0.1l0,0l0,0l0,0l0.1-0.1l0.1-0.1l0.1-0.1l0-0.1l0,0l0,0l0.1,0l0,0l0.1,0l0,0.1l0,0.1l0,0.1l0,0.1l0,0.1l0,0.1l0.1,0.1l0,0l0,0
	l0,0l0,0l0.1,0l0.1,0l0,0l0-0.1l0,0l0-0.1l0-0.1l0,0l0,0l0,0l0,0l0-0.1l0,0l0,0l0.1,0l0.1-0.1l0.1-0.1l0.1-0.1l0-0.1l0-0.1l0,0
	l0.1,0l0.1,0l0.1,0h0.1l0,0l0,0l0,0l0,0l0,0l0,0.1l0,0.1l0,0.1l0,0.1l0,0.1l0,0.1l0,0.1l0,0.1l0,0.1l0,0l0,0l0,0.1l0,0l0,0l0,0.1
	l0,0l0,0v0l0,0l0,0l0,0l0,0l-0.1,0l-0.1,0l-0.1,0h-0.1l-0.1,0l0,0l-0.1-0.1l0-0.1l-0.1,0l0-0.1l-0.1,0l-0.1,0l-0.1,0l-0.1,0l0,0.1
	l0,0.1v0.1l0,0.1l0,0l0,0l0,0.1l0,0.1l0,0.1l0,0l0,0l0,0.1l0,0.1l0,0.1l0,0l0,0l-0.1,0l0,0l-0.1,0l-0.1,0l-0.1,0l-0.1,0l0,0l-0.1,0
	l0-0.1l-0.1,0v0l0,0v-0.1l0-0.1l0,0l0,0l0,0l0-0.1l0,0l0,0l-0.1,0l0,0l0,0.1l0,0.1l0,0.1v0l0,0l0,0l0,0L22.2,18.8L22.2,18.8
	L22.2,18.8L22.2,18.8z M22.3,18.2L22.3,18.2l-0.2,0.1l-0.1,0.1l0,0l0,0l-0.1,0h-0.1l0,0l0,0l0,0l0,0l0-0.1l0,0l0,0l0.1,0l0.1,0
	l0.1,0l0,0l0,0L22.3,18.2L22.3,18.2L22.3,18.2z M22.6,17.8L22.6,17.8l-0.1-0.1l0,0l0-0.1v0l0,0l0,0l0.1,0l0,0l0.1,0h0l0.1,0l0,0
	l0,0.1l0,0.1l0,0l-0.1,0.1l-0.1,0L22.6,17.8z M23.9,17.8L23.9,17.8L23.9,17.8l0-0.2l0-0.1l0,0l0-0.2l0,0l0-0.1l-0.1,0l0,0l-0.1,0
	l0,0l-0.1,0l0,0h-0.1l0,0l0,0l0,0l0,0l0,0l0,0.1v0.1l0.1,0l0,0l0,0l0,0l0,0l0,0l0,0l0,0.1l0,0l0,0l0.1,0l0,0L23.9,17.8
	C23.9,17.8,23.9,17.8,23.9,17.8z M21.1,17.5L21.1,17.5L21,17.4l-0.1,0l-0.1-0.1l0,0l0,0l0-0.1l0-0.1v0l0-0.1l0,0l0.1,0l0,0l0,0
	l0.1,0l0,0l0.1,0l0.1,0h0.1l0,0l0,0h0.1l0,0h0.1l0,0l0.1,0l0,0l0,0l0-0.1l0,0l0,0l0,0l0,0l0,0l0-0.1l0,0l0,0l0-0.1l0-0.1l0-0.1l0,0
	l0.1-0.1l0.1-0.1l0.1-0.1l0.1-0.1l0.1,0l0.1,0l0.1,0l0.1,0l0,0l0.1,0.1l0,0.1l0,0.1l0,0.1l0.1,0l0.1,0l0.1,0l0.1,0l0.1,0l0,0l0,0
	l0-0.1l0,0l0-0.1l-0.1,0L22.8,16l0,0l0,0l0,0v-0.1v0l0,0l0,0l0,0l0,0l0,0h0.1l0.1,0v0.1l0,0.1l0,0l0,0l0.1,0l0,0.1l0.1,0.1l0,0.1
	l0.1,0.1l0,0.1l0,0l0,0.2l0,0.1l0,0l0,0l0,0l-0.1,0l-0.1,0l-0.1,0.1l-0.1,0.1l-0.1,0l-0.1,0l0,0l0,0l0,0l-0.1-0.1l-0.1-0.1l-0.1-0.1
	l-0.1,0l-0.1,0l0,0l0,0l0,0l0,0.1l0,0.1v0.1l0,0l0,0l0,0v0.1l0,0.1v0l0,0.1l0,0.1l0,0.1l0,0.1l0,0l-0.1,0.1l-0.1,0.1l-0.2,0.1
	l-0.1,0l0,0l-0.1,0.1l-0.1,0l-0.1,0L21.1,17.5z M27.2,14.2c0.2,0,0.3,0.1,0.3,0.3c0,0.2-0.1,0.3-0.3,0.3c-0.2,0-0.3-0.1-0.3-0.3
	C26.9,14.3,27,14.2,27.2,14.2z M6.4,14.2c0.2,0,0.3,0.1,0.3,0.3c0,0.2-0.1,0.3-0.3,0.3c-0.2,0-0.3-0.1-0.3-0.3
	C6.1,14.3,6.2,14.2,6.4,14.2z M18.9,7c0.1-0.2,0.2-0.2,0.4-0.1c-0.1,0.1,0,0.1,0.1,0.2c0,0,0.2,0,0.5,0.1c0.1,0,0.2,0,0.3-0.3
	c0.2,0,0.3,0.1,0.2,0.4c0,0,0.4,0.1,0.5,0.3c0,0,0,0.2-0.1,0.3c0,0-0.1,0-0.2,0c-0.1,0-0.2-0.1-0.3-0.1c0,0,0,0,0,0
	c0,0,0.1,0.1,0.2,0.1c0,0,0,0.1,0,0.1c0,0.1-0.1,0.2-0.1,0.2c0,0,0.2,0.2,0.2,0.3c0,0,0.1,0.1,0.1,0.2c0,0,0,0.1-0.2,0.2
	c0,0-0.4-0.2-0.3,0.1c0,0,0.4,0.2,0.6,0.2c0,0,0.4,0,0.5,0.4c0,0-0.1,0.2-0.4,0.3c0,0-0.4-0.1-0.5-0.2c0,0-0.4-0.3-0.9-0.4
	c0,0-0.2,0.1,0.1,0.2c0,0,0.1,0.1,0.5,0.2c0,0,0.3,0.1,0.3,0.2c0,0,0,0.2-0.1,0.2c0,0-0.4,0-0.5,0c0,0-0.3-0.1-0.4-0.2
	c0,0-0.1,0-0.1,0.1c0,0-0.1,0.3-0.2,0.4c0,0-0.2,0-0.2-0.1c0,0,0-0.4,0.1-0.5c0,0-0.5-0.2-1-0.2c0,0-0.3-0.2-0.2-0.3
	c0,0,0-0.2,0.4-0.1c0,0,0.4,0,0.6,0.1c0,0,0.2,0.1,0.4,0c0,0,0.2-0.1,0-0.1c0,0-0.2-0.1-0.9-0.1c0,0-0.6,0-0.7-0.1
	c0,0-0.2-0.1-0.1-0.3c0,0,0-0.2,0.2-0.2c0,0,0.5,0.1,0.7,0.1c0,0,0.1,0,0-0.1c0,0-0.1,0-0.1,0c0,0-0.2,0-0.3-0.3
	c0,0,0.1-0.2,0.2-0.2c0,0,0.3,0,0.3,0c0,0,0.1,0,0.2-0.1c0,0-0.1,0-0.2,0c0,0-0.1-0.2-0.1-0.3c0,0,0,0,0-0.1c0.2,0,0.7-0.1,0-0.1
	c0,0-0.1,0-0.1,0c0,0-0.2-0.2,0-0.4C18.4,6.9,18.6,6.9,18.9,7z M19.2,8.6c0.1,0,0.2-0.3,0.2-0.3c0-0.1,0-0.3,0-0.3
	c0,0-0.3-0.1-0.3-0.1S18.9,8,19.1,8.1c0,0,0.1,0.3-0.3,0.3c0,0-0.2,0.1,0,0.1C18.8,8.6,19,8.6,19.2,8.6z M19.3,7.5
	c0-0.1,0.4,0,0.5,0.1c0.2,0.1,0.1,0.1-0.1,0.1C19.6,7.6,19.2,7.5,19.3,7.5z M20.2,8.2c0,0,0-0.2-0.4-0.2c-0.1,0.2-0.2,0.3-0.2,0.4
	c0,0,0,0.2,0,0.2c0,0,0.1,0.2,0.4,0c0,0,0-0.1-0.1-0.2c0,0,0-0.1,0-0.2C19.9,8.3,20.1,8.3,20.2,8.2z M6.9,11.1c0-0.1,0.2-0.1,0.4,0
	c0,0,0,0.2-0.1,0.3c0,0,0,0.1,0.1,0c0,0,0-0.1,0.2-0.1c0,0,0.2,0.1,0.1,0.1c0,0-0.1,0.2-0.1,0.3c0,0,0.1,0.1,0.1-0.1
	c0,0,0-0.1,0.1-0.1c0,0,0.2,0,0.1,0.4c0,0-0.1,0.2-0.1,0.3c0,0-0.1,0.1-0.3,0c0,0-0.5-0.4-0.7-0.5c0,0-0.1-0.1-0.1-0.2
	C6.8,11.4,6.9,11.2,6.9,11.1z M8.2,9.9c0,0,0.2-0.3,0.4,0c0,0,0,0.1,0.1,0.1c0,0,0.2,0,0.3,0.2c0,0,0.1,0,0.2,0.3c0,0,0,0,0.1,0
	c0,0,0.2-0.3,0.3-0.3c0,0,0.1-0.1,0.4-0.1c0,0,0.1,0.2,0.1,0.3c0,0,0.3,0.2,0.3,0.3c0,0,0.1,0.1-0.1,0.3c0,0-0.2,0-0.3-0.2
	c0,0-0.3-0.3-0.6,0.1c0,0-0.7,0.8-0.7,0.9c0,0,0.2,0,0.2-0.1c0,0,0.2-0.4,0.5-0.6c0,0,0.2-0.1,0.3,0.1c0,0,0.1,0.2,0.1,0.3
	c0,0,0.1,0.1,0.1-0.1c0,0,0.1-0.2,0.2-0.3c0,0,0.2-0.1,0.3,0.2c0,0-0.1,0.2-0.2,0.3c0,0-0.1,0-0.1,0.1c0,0,0,0.1,0,0.3
	c0,0,0.1,0.1,0.1,0.2c0,0-0.1,0.4-0.2,0.5c0,0-0.2,0.1-0.4,0.3c0,0-0.2,0-0.2-0.2c0,0,0.5-0.5,0.5-0.6c0,0,0-0.2-0.2-0.1
	c0,0-0.4,0.5-0.5,0.6c0,0-0.2,0.1-0.3-0.1c0,0-0.1-0.1,0.1-0.2c0,0,0.3-0.3,0.3-0.4c0,0,0-0.2-0.1-0.2c0,0-0.1,0-0.1,0
	c0,0-0.2,0.2-0.2,0.3c0,0-0.2,0.1-0.2-0.1c0,0,0-0.2,0-0.3c0,0-0.1,0-0.1,0c0,0-0.4,0.4-0.4,0.6c0,0,0.5,0.2,0.6,0.5
	c0,0,0.1,0.2,0,0.3c0,0-0.2,0.2-0.3-0.1c0,0-0.2-0.2-0.5-0.4c0,0-0.3,0-0.4-0.1c0,0-0.1-0.2,0-0.4c0,0,0.1,0,0.2-0.1
	c0,0,1.1-1.4,1.1-1.4c0,0,0.1-0.1-0.1-0.4c0,0-0.3,0.1-0.3,0c0,0-0.1-0.1,0-0.2c0,0,0-0.1-0.1,0c0,0-0.3,0.1-0.3-0.1
	C8,10.2,8.1,10,8.2,9.9z M9.1,11.8c0,0-0.1-0.2,0.2-0.2c0,0,0.1,0,0.1,0.1C9.4,11.7,9.3,11.8,9.1,11.8z M7.7,10.6
	c0-0.1-0.1-0.2,0.1-0.2c0,0,0.1-0.1,0.2,0c0,0,0,0.3,0.2,0.3c0,0,0.1,0,0.2,0.1c0,0,0.1,0.1,0.1,0.1c0.1,0,0.1,0,0.2,0
	c0,0,0.1,0.1,0,0.2c0,0-0.1,0-0.2,0c0,0,0,0-0.1,0c0,0,0,0.1,0,0.1c0,0,0,0.1,0,0.1c0,0-0.2,0.1-0.2,0c0,0-0.1-0.2-0.2-0.2
	c-0.2,0-0.2-0.1-0.2-0.3c0,0-0.2,0-0.3,0c0,0-0.2,0,0-0.2C7.4,10.7,7.6,10.7,7.7,10.6C7.7,10.6,7.7,10.6,7.7,10.6z M8.2,10.8
	c0,0-0.2-0.1-0.2,0c0,0,0,0.2,0.1,0.1c0,0,0.1,0,0.1,0C8.2,10.9,8.1,10.9,8.2,10.8z M13,7.3c0.1,0,0,0.1,0.1,0.1c0,0,0,0.2,0.1,0.4
	c0,0,0.1,0,0.2,0l0.2-0.1c0.1-0.1,0.5-0.3,0.9-0.3c0,0,0.4,0.3,0,0.6c0,0-0.7,0.1-0.8,0.2c0,0-0.1,0.1,0,0.2c0,0,0.7,0.4,2.1,0.5
	c0,0,0,0.5-0.6,0.7c0,0-0.3,0-0.5,0c0,0-0.9-0.5-1.2-0.7c0,0-0.1,0-0.1,0.1c0,0,0,0.8-0.3,1.4c0,0-0.3,0.3-0.7,0.2
	c0,0-0.1-0.2-0.2-0.5c0,0,0-0.2,0.3-0.3c0,0,0.6-0.3,0.5-1.2c0,0,0-0.1-0.1-0.1c0,0-0.3,0.1-0.7,0.6c0,0-0.3,0-0.4-0.3
	c0,0,0-0.3,0.4-0.4c0,0,0.6-0.2,0.6-0.4c0,0-0.1-0.4-0.1-0.5C12.8,7.3,12.8,7.3,13,7.3z M20.1,30.6l1.2-0.5l0.1,0.4L20.3,31
	L20.1,30.6z M18.9,30.3l0.3-0.1l0.3,1.5l-0.4,0.1l-0.2-1.1L18.7,31l-0.2-0.2L18.9,30.3z M17.6,30.5l0.3,0L18,32l-0.4,0l-0.1-1.1
	l-0.3,0.2l-0.2-0.3L17.6,30.5z M16,30.7c-0.1,0-0.1,0-0.1,0c0,0-0.1,0.1-0.1,0.2c0,0.1,0,0.1,0,0.2c0,0,0.1,0.1,0.1,0.1
	c0.1,0,0.1,0,0.1-0.1c0,0,0.1-0.1,0.1-0.2c0-0.1,0-0.1,0-0.2C16.1,30.7,16.1,30.7,16,30.7z M15.4,31.9l0.1-0.3c0,0,0.1,0.1,0.1,0.1
	c0.1,0,0.1,0,0.2,0c0.1,0,0.2,0,0.3-0.1c0.1-0.1,0.1-0.2,0.1-0.3c0,0-0.1,0.1-0.2,0.1c-0.1,0-0.1,0-0.2,0c-0.1,0-0.2-0.1-0.3-0.2
	c-0.1-0.1-0.1-0.2-0.1-0.4c0-0.2,0.1-0.3,0.2-0.4c0.1-0.1,0.2-0.1,0.4-0.1c0.2,0,0.3,0.1,0.4,0.2c0.1,0.1,0.1,0.3,0.1,0.6
	c0,0.3-0.1,0.5-0.2,0.6C16.2,32,16,32.1,15.8,32c-0.1,0-0.1,0-0.2,0C15.5,32,15.5,32,15.4,31.9z M14.5,30.2l0.3,0.1l-0.3,1.5
	l-0.4-0.1l0.2-1.1L14,30.8l-0.1-0.3L14.5,30.2z M13.3,30.5l-1.2-0.5l-0.1,0.4l1.2,0.5L13.3,30.5z M14.4,16.4
	C14.4,16.4,14.4,16.3,14.4,16.4c0.2-0.2,0.4-0.3,0.5-0.3c0,0,0.1-0.1,0.1-0.1c0.2-0.1,0.3-0.2,0.4-0.2c0,0,0.1,0,0.1-0.1
	c0.2-0.1,0.3-0.1,0.4-0.1c0,0,0.1,0,0.1,0c0.2-0.1,0.3-0.1,0.4-0.1c0-0.1,0-0.1,0-0.2c0-0.2,0-0.4,0-0.5c0-0.2,0-0.4,0-0.5
	c0-0.2,0-0.4,0-0.5c0-0.2,0-0.4,0-0.5c0-0.2,0-0.4,0-0.5c0-0.2,0-0.4,0-0.5c0-0.2,0-0.4,0-0.5c0-0.2,0-0.4,0-0.5c-0.1,0-0.1,0-0.1,0
	c-0.3,0.1-0.6,0.1-0.7,0.1c-0.3,0.2-0.5,0.2-0.7,0.1C14.5,12,14.2,12,14.1,12c-0.3,0.2-0.5,0.3-0.7,0.3c-0.3,0.2-0.5,0.3-0.6,0.3
	c-0.2,0.3-0.4,0.4-0.6,0.4c-0.2,0.3-0.4,0.4-0.6,0.4c-0.1,0.1-0.2,0.2-0.2,0.3c0,0,0,0.1,0.1,0.1c0.2,0.1,0.3,0.2,0.3,0.3
	c0.2,0.1,0.3,0.2,0.3,0.3c0.2,0.1,0.3,0.2,0.3,0.3c0.2,0.1,0.3,0.2,0.3,0.3c0.2,0.1,0.3,0.2,0.3,0.3c0.2,0.1,0.3,0.2,0.3,0.3
	c0.2,0.1,0.3,0.2,0.3,0.3c0.2,0.1,0.3,0.3,0.3,0.4C14.2,16.5,14.3,16.4,14.4,16.4z M15,16.1c0.2,0.1,0.3,0.2,0.5,0.3
	c0.1,0,0.2,0,0.3-0.1C15.6,16.2,15.5,15.8,15,16.1C15,16.1,15,16.1,15,16.1z M15.5,16.5c-0.2,0.1-0.3,0.2-0.4,0.2
	c-0.1,0.2-0.3,0.2-0.4,0.2c-0.1,0.2-0.2,0.3-0.3,0.3c-0.1,0.2-0.2,0.3-0.3,0.3c-0.1,0.2-0.2,0.3-0.3,0.4c-0.1,0.2-0.1,0.3-0.2,0.4
	c0,0.2-0.1,0.3-0.2,0.4c0,0.2,0,0.4-0.1,0.4c0,0.2,0,0.4-0.1,0.4c0.1,0.2,0.1,0.4,0,0.5c0.1,0.2,0.1,0.3,0.1,0.4
	c0.1,0.2,0.1,0.3,0.1,0.4c0.1,0.2,0.2,0.3,0.2,0.4c0.2,0.2,0.2,0.3,0.2,0.4c0.2,0.1,0.2,0.3,0.3,0.4c0.2,0.1,0.3,0.2,0.3,0.3
	c0.2,0.1,0.3,0.2,0.4,0.3c0.2,0.1,0.3,0.1,0.4,0.2c0.2,0,0.3,0.1,0.4,0.2c0.2,0,0.4,0.1,0.4,0.1c0.2,0,0.4,0,0.4,0.1
	c0.2,0,0.4,0,0.5,0c0.2-0.1,0.3-0.1,0.5,0c0.2-0.1,0.3-0.1,0.4-0.1c0.2-0.1,0.3-0.2,0.4-0.1c0.2-0.1,0.3-0.2,0.4-0.2
	c0.1-0.2,0.3-0.2,0.4-0.2c0.1-0.2,0.2-0.3,0.3-0.3c0.1-0.2,0.2-0.3,0.3-0.3c0.1-0.2,0.2-0.3,0.3-0.4c0.1-0.2,0.1-0.3,0.2-0.4
	c0-0.2,0.1-0.3,0.2-0.4c0-0.2,0-0.4,0.1-0.4c0-0.2,0-0.4,0.1-0.4c-0.1-0.2-0.1-0.4,0-0.5c-0.1-0.2-0.1-0.3-0.1-0.4
	c-0.1-0.2-0.1-0.3-0.1-0.4c-0.1-0.2-0.2-0.3-0.2-0.4c-0.2-0.2-0.2-0.3-0.2-0.4c-0.2-0.1-0.2-0.3-0.3-0.4c-0.2-0.1-0.3-0.2-0.3-0.3
	c-0.2-0.1-0.3-0.2-0.4-0.3c-0.2-0.1-0.3-0.1-0.4-0.2c-0.2,0-0.3-0.1-0.4-0.2c-0.2,0-0.4-0.1-0.4-0.1c-0.2,0-0.4,0-0.4-0.1
	c-0.2,0-0.4,0-0.5,0c-0.2,0.1-0.3,0.1-0.5,0c-0.2,0.1-0.3,0.1-0.4,0.1C15.7,16.5,15.6,16.5,15.5,16.5z M15,16.6c0.1,0,0.2,0,0.3-0.1
	c-0.2-0.1-0.4-0.5-0.8-0.1c0,0,0,0,0,0C14.7,16.4,14.8,16.6,15,16.6z M13,21.6C12.9,21.6,12.9,21.5,13,21.6
	c-0.2-0.3-0.2-0.4-0.2-0.5c0,0,0-0.1,0-0.1c-0.1-0.2-0.1-0.3-0.1-0.4c0,0,0-0.1,0-0.1c0-0.1,0-0.1,0-0.1c-0.1,0-0.1,0-0.2,0
	c-0.2,0-0.4,0-0.5,0c-0.2,0-0.4,0-0.5,0c-0.2,0-0.4,0-0.5,0c-0.2,0-0.4,0-0.5,0c-0.2,0-0.4,0-0.5,0c-0.2,0-0.4,0-0.5,0
	c-0.2,0-0.4,0-0.5,0c-0.2,0-0.4,0-0.5,0c0,0,0,0.1,0,0.1c0.1,0.3,0.1,0.6,0.1,0.7c0.2,0.3,0.2,0.5,0.1,0.7c0.2,0.3,0.2,0.5,0.2,0.7
	c0.2,0.3,0.3,0.5,0.3,0.7c0.2,0.3,0.3,0.5,0.3,0.6c0.3,0.2,0.4,0.4,0.4,0.6c0.3,0.2,0.4,0.4,0.4,0.6c0.1,0.1,0.2,0.2,0.3,0.2
	c0,0,0.1,0,0.1-0.1c0.1-0.2,0.2-0.3,0.3-0.3c0.1-0.2,0.2-0.3,0.3-0.3c0.1-0.2,0.2-0.3,0.3-0.3c0.1-0.2,0.2-0.3,0.3-0.3
	c0.1-0.2,0.2-0.3,0.3-0.3c0.1-0.2,0.2-0.3,0.3-0.3c0.1-0.2,0.2-0.3,0.3-0.3c0.1-0.2,0.3-0.3,0.4-0.3c0,0-0.1-0.1-0.1-0.1
	c-0.1-0.1-0.2-0.3-0.2-0.4c0,0-0.1-0.1-0.1-0.1C13,21.8,13,21.7,13,21.6z M12.8,21c0.1-0.1,0.3-0.2,0.4-0.4c0-0.1,0-0.2,0-0.3
	C13,20.4,12.6,20.4,12.8,21C12.8,20.9,12.8,20.9,12.8,21z M13.3,21c0-0.1,0-0.2-0.1-0.3c-0.1,0.2-0.5,0.3-0.3,0.7c0,0,0,0,0,0
	C13,21.3,13.2,21.2,13.3,21z M12.7,20.4c0.1-0.1,0.3-0.2,0.4-0.3c0-0.1,0.1-0.2,0-0.3C13,19.9,12.6,19.9,12.7,20.4
	C12.7,20.4,12.7,20.4,12.7,20.4z M12.6,20.2c0-0.1,0-0.1,0-0.2c0,0,0-0.1,0-0.1c0-0.2,0-0.3,0-0.4c-0.1-0.1-0.2-0.1-0.4-0.1
	c0.1,0.1,0.1,0.2,0.1,0.4h0c0,0.1,0,0.2,0,0.2c0,0,0,0,0,0.1C12.4,20.2,12.5,20.2,12.6,20.2z M12.7,19.9c0.1-0.1,0.3-0.2,0.4-0.3
	c0-0.1,0.1-0.2,0.1-0.3C13,19.5,12.6,19.4,12.7,19.9C12.7,19.9,12.7,19.9,12.7,19.9z M12.7,19.4c0.1-0.1,0.3-0.1,0.5-0.2
	c0.1-0.1,0.1-0.1,0.1-0.3C13.1,19,12.7,18.8,12.7,19.4C12.7,19.4,12.7,19.4,12.7,19.4z M12.6,19.4c0-0.2,0-0.3,0.1-0.4
	c0,0,0-0.1,0-0.1c0-0.2,0.1-0.3,0.1-0.4c0,0,0-0.1,0-0.1c0-0.2,0.1-0.3,0.2-0.4c0,0,0-0.1,0-0.1c0.1-0.2,0.1-0.3,0.2-0.4
	c0,0,0-0.1,0.1-0.1c0.1-0.1,0.1-0.2,0.2-0.2c0,0-0.1-0.1-0.1-0.1c-0.2-0.1-0.3-0.2-0.3-0.3c-0.2-0.1-0.3-0.2-0.3-0.3
	c-0.2-0.1-0.3-0.2-0.3-0.3c-0.2-0.1-0.3-0.2-0.3-0.3c-0.2-0.1-0.3-0.2-0.3-0.3c-0.2-0.1-0.3-0.2-0.3-0.3c-0.2-0.1-0.3-0.2-0.3-0.3
	c-0.2-0.1-0.3-0.2-0.3-0.3c0,0-0.1,0-0.1,0.1c-0.1,0.3-0.3,0.5-0.5,0.6c-0.1,0.3-0.2,0.5-0.4,0.6c-0.1,0.4-0.2,0.5-0.3,0.6
	c0,0.4-0.2,0.6-0.3,0.7c0,0.4-0.1,0.6-0.2,0.7c0,0.4-0.1,0.6-0.2,0.7c0,0.4,0,0.6-0.1,0.7c0,0.1,0,0.3,0,0.4c0,0,0.1,0,0.1,0
	c0.2,0,0.4,0,0.5,0c0.2,0,0.4,0,0.5,0c0.2,0,0.4,0,0.5,0c0.2,0,0.4,0,0.5,0c0.2,0,0.4,0,0.5,0c0.2,0,0.4,0,0.5,0c0.2,0,0.4,0,0.5,0
	C12.3,19.4,12.5,19.4,12.6,19.4z M12.8,18.9c0.1-0.1,0.3-0.1,0.5-0.2c0.1,0,0.1-0.1,0.1-0.3C13.2,18.5,12.9,18.3,12.8,18.9
	C12.8,18.9,12.8,18.9,12.8,18.9z M12.9,18.4c0.2-0.1,0.3,0,0.5-0.1c0.1,0,0.1-0.1,0.2-0.3C13.4,18.1,13.1,17.8,12.9,18.4
	C12.9,18.4,12.9,18.4,12.9,18.4z M13.1,17.9c0.2,0,0.3,0,0.5,0c0.1,0,0.1-0.1,0.2-0.3C13.7,17.7,13.4,17.4,13.1,17.9
	C13.2,17.9,13.2,17.9,13.1,17.9z M13.4,17.5c0.2,0,0.3,0.1,0.5,0c0.1,0,0.2-0.1,0.2-0.2C14,17.3,13.7,17,13.4,17.5
	C13.4,17.5,13.4,17.5,13.4,17.5z M13.6,17.1C13.6,17.1,13.6,17.1,13.6,17.1c0.1-0.1,0.1-0.1,0.1-0.1c0.1-0.2,0.2-0.2,0.3-0.3
	c0,0,0.1-0.1,0.1-0.1c0,0,0,0,0,0c0-0.1-0.1-0.2-0.2-0.3c0,0.1-0.1,0.2-0.2,0.3l0,0c-0.1,0.1-0.1,0.1-0.1,0.2c0,0,0,0,0,0.1
	C13.5,17,13.5,17.1,13.6,17.1z M13.7,17.1c0.2,0,0.3,0.1,0.5,0.1c0.1,0,0.2-0.1,0.3-0.2C14.3,16.9,14.1,16.6,13.7,17.1
	C13.8,17.1,13.8,17.1,13.7,17.1z M14.1,16.7c0.2,0,0.3,0.1,0.5,0.2c0.1,0,0.2,0,0.3-0.2C14.7,16.7,14.5,16.3,14.1,16.7
	C14.1,16.7,14.1,16.7,14.1,16.7z M20.8,21.2c0,0,0,0.1,0,0.1c0,0.2-0.1,0.3-0.2,0.4c0,0,0,0.1,0,0.1c-0.1,0.2-0.1,0.3-0.2,0.4
	c0,0,0,0.1-0.1,0.1c-0.1,0.1-0.1,0.2-0.2,0.2c0,0,0,0.1,0.1,0.1c0.2,0.1,0.3,0.2,0.3,0.3c0.2,0.1,0.3,0.2,0.3,0.3
	c0.2,0.1,0.3,0.2,0.3,0.3c0.2,0.1,0.3,0.2,0.3,0.3c0.2,0.1,0.3,0.2,0.3,0.3c0.2,0.1,0.3,0.2,0.3,0.3c0.2,0.1,0.3,0.2,0.3,0.3
	c0.2,0.1,0.3,0.2,0.3,0.3c0,0,0.1,0,0.1-0.1c0.1-0.3,0.3-0.5,0.5-0.6c0.1-0.3,0.2-0.5,0.4-0.6c0.1-0.4,0.2-0.5,0.3-0.6
	c0-0.4,0.2-0.6,0.3-0.7c0-0.4,0.1-0.6,0.2-0.7c0-0.4,0.1-0.6,0.2-0.7c0-0.4,0-0.6,0.1-0.7c0-0.1,0-0.3,0-0.4c0,0-0.1,0-0.1,0
	c-0.2,0-0.4,0-0.5,0c-0.2,0-0.4,0-0.5,0c-0.2,0-0.4,0-0.5,0c-0.2,0-0.4,0-0.5,0c-0.2,0-0.4,0-0.5,0c-0.2,0-0.4,0-0.5,0
	c-0.2,0-0.4,0-0.5,0c-0.2,0-0.4,0-0.5,0c0,0.2,0,0.3-0.1,0.4c0,0,0,0.1,0,0.1C20.9,21,20.9,21.2,20.8,21.2z M20.5,21.8
	c-0.2,0-0.3,0-0.5,0c-0.1,0-0.1,0.1-0.2,0.3C20,22.1,20.3,22.3,20.5,21.8C20.5,21.8,20.5,21.8,20.5,21.8z M20.2,21.4
	c-0.1,0-0.1,0.1-0.2,0.3c0.2-0.1,0.6,0.2,0.7-0.3c0,0,0,0,0,0C20.5,21.4,20.3,21.4,20.2,21.4z M20.2,22.2c-0.2,0-0.3-0.1-0.5,0
	c-0.1,0-0.2,0.1-0.2,0.2C19.7,22.5,19.9,22.7,20.2,22.2C20.2,22.3,20.2,22.3,20.2,22.2z M20.1,22.6C20,22.6,20,22.6,20.1,22.6
	C20,22.6,20,22.7,20,22.7c-0.1,0.2-0.2,0.2-0.3,0.3c0,0-0.1,0.1-0.1,0.1c0,0,0,0,0,0c0,0.1,0.1,0.1,0.2,0.2c0,0,0-0.1,0-0.1
	C19.9,23,20.2,22.9,20.1,22.6z M19.9,22.7c-0.2,0-0.3-0.1-0.5-0.1c-0.1,0-0.2,0.1-0.3,0.2C19.3,22.8,19.5,23.1,19.9,22.7
	C19.8,22.7,19.9,22.7,19.9,22.7z M19.5,23c-0.2,0-0.3-0.1-0.5-0.2c-0.1,0-0.2,0-0.3,0.2C18.9,23.1,19.1,23.4,19.5,23
	C19.5,23,19.5,23,19.5,23z M19.5,23.2c-0.1,0.1-0.2,0.1-0.2,0.1c0,0-0.1,0.1-0.1,0.1c-0.2,0.1-0.3,0.2-0.4,0.2c0,0-0.1,0.1-0.1,0.1
	c-0.2,0.1-0.3,0.2-0.4,0.2c0,0-0.1,0-0.1,0.1C18,24,17.9,24,17.8,24c0,0-0.1,0-0.1,0c-0.2,0.1-0.3,0.1-0.4,0.1c0,0.1,0,0.1,0,0.2
	c0,0.2,0,0.4,0,0.5c0,0.2,0,0.4,0,0.5c0,0.2,0,0.4,0,0.5c0,0.2,0,0.4,0,0.5c0,0.2,0,0.4,0,0.5c0,0.2,0,0.4,0,0.5c0,0.2,0,0.4,0,0.5
	c0,0.2,0,0.4,0,0.5c0,0,0.1,0,0.1,0c0.3-0.1,0.6-0.1,0.7-0.1c0.3-0.2,0.5-0.2,0.7-0.1c0.3-0.2,0.5-0.2,0.7-0.2
	c0.3-0.2,0.5-0.3,0.7-0.3c0.3-0.2,0.5-0.3,0.6-0.3c0.2-0.3,0.4-0.4,0.6-0.4c0.2-0.3,0.4-0.4,0.6-0.4c0.1-0.1,0.2-0.2,0.2-0.3
	c0,0,0-0.1-0.1-0.1c-0.2-0.1-0.3-0.2-0.3-0.3c-0.2-0.1-0.3-0.2-0.3-0.3c-0.2-0.1-0.3-0.2-0.3-0.3c-0.2-0.1-0.3-0.2-0.3-0.3
	c-0.2-0.1-0.3-0.2-0.3-0.3c-0.2-0.1-0.3-0.2-0.3-0.3c-0.2-0.1-0.3-0.2-0.3-0.3C19.6,23.4,19.5,23.3,19.5,23.2z M19.1,23.3
	c-0.2,0-0.3-0.2-0.5-0.2c-0.1,0-0.2,0-0.3,0.1C18.5,23.3,18.6,23.7,19.1,23.3C19.1,23.3,19.1,23.3,19.1,23.3z M18.6,23.6
	c-0.2-0.1-0.3-0.2-0.5-0.3c-0.1,0-0.2,0-0.3,0.1C18.1,23.5,18.1,23.9,18.6,23.6C18.6,23.6,18.6,23.6,18.6,23.6z M18.1,23.8
	c-0.1-0.1-0.2-0.2-0.4-0.3c-0.1,0-0.2,0-0.3,0C17.6,23.6,17.6,24,18.1,23.8C18.1,23.8,18.1,23.8,18.1,23.8z M17.6,23.9
	c-0.1-0.1-0.2-0.3-0.4-0.4c-0.1,0-0.2,0-0.3,0C17.1,23.7,17.1,24.1,17.6,23.9C17.6,23.9,17.6,23.9,17.6,23.9z M17.1,24
	c-0.1-0.1-0.2-0.3-0.3-0.4c-0.1,0-0.2-0.1-0.3,0C16.6,23.7,16.6,24.1,17.1,24C17.1,24,17.1,24,17.1,24z M17.2,24.1
	C17.2,24.1,17.2,24.1,17.2,24.1c-0.2,0-0.3,0-0.4,0c0,0-0.1,0-0.1,0c-0.1,0-0.1,0-0.2,0c0,0.1,0,0.2,0,0.3c0.1-0.1,0.2-0.1,0.4-0.1
	v0c0.1,0,0.2,0,0.2,0c0,0,0,0,0.1,0C17.1,24.2,17.2,24.2,17.2,24.1z M16.6,24c-0.1-0.1-0.1-0.3-0.3-0.5c-0.1-0.1-0.2-0.1-0.3-0.1
	C16.2,23.7,16,24,16.6,24C16.6,24,16.6,24,16.6,24z M16.3,24.1c-0.1,0-0.1,0-0.1,0c0,0-0.1,0-0.1,0c-0.2,0-0.3,0-0.4-0.1
	c0,0-0.1,0-0.1,0c-0.2,0-0.3-0.1-0.4-0.2c0,0-0.1,0-0.1,0c-0.2-0.1-0.3-0.1-0.4-0.2c0,0-0.1,0-0.1,0c-0.2-0.1-0.3-0.2-0.3-0.2
	c0,0-0.1,0-0.1-0.1c0,0,0,0,0,0c0,0-0.1,0.1-0.1,0.1c-0.1,0.2-0.2,0.3-0.3,0.3c-0.1,0.2-0.2,0.3-0.3,0.3c-0.1,0.2-0.2,0.3-0.3,0.3
	c-0.1,0.2-0.2,0.3-0.3,0.3c-0.1,0.2-0.2,0.3-0.3,0.3c-0.1,0.2-0.2,0.3-0.3,0.3c-0.1,0.2-0.2,0.3-0.3,0.3c-0.1,0.2-0.2,0.3-0.3,0.3
	c0,0,0.1,0.1,0.1,0.1c0.3,0.1,0.5,0.3,0.6,0.5c0.3,0.1,0.5,0.2,0.6,0.4c0.4,0.1,0.5,0.2,0.6,0.3c0.4,0,0.6,0.2,0.7,0.3
	c0.4,0,0.6,0.1,0.7,0.2c0.4,0,0.6,0.1,0.7,0.2c0.4,0,0.6,0,0.7,0.1c0.1,0,0.3,0,0.4,0c0,0,0-0.1,0-0.1c0-0.2,0-0.4,0-0.5
	c0-0.2,0-0.4,0-0.5c0-0.2,0-0.4,0-0.5c0-0.2,0-0.4,0-0.5c0-0.2,0-0.4,0-0.5c0-0.2,0-0.4,0-0.5c0-0.2,0-0.4,0-0.5
	C16.3,24.3,16.3,24.2,16.3,24.1z M16.1,23.9c-0.1-0.1-0.1-0.3-0.2-0.5c-0.1-0.1-0.1-0.1-0.3-0.1C15.7,23.5,15.5,23.9,16.1,23.9
	C16.1,23.9,16.1,23.9,16.1,23.9z M15.6,23.8c-0.1-0.1-0.1-0.3-0.1-0.5c0-0.1-0.1-0.1-0.3-0.2C15.2,23.4,15,23.7,15.6,23.8
	C15.6,23.8,15.6,23.8,15.6,23.8z M15.1,23.6c-0.1-0.2,0-0.3-0.1-0.5c0-0.1-0.1-0.1-0.3-0.2C14.8,23.2,14.6,23.5,15.1,23.6
	C15.1,23.6,15.1,23.6,15.1,23.6z M14.6,23.4c0-0.2,0-0.3,0-0.5c0-0.1-0.1-0.1-0.2-0.2C14.4,22.9,14.1,23.1,14.6,23.4
	C14.6,23.4,14.6,23.4,14.6,23.4z M14.2,23.1c0-0.2,0.1-0.3,0.1-0.5c0-0.1-0.1-0.2-0.2-0.3C14,22.5,13.7,22.8,14.2,23.1
	C14.2,23.1,14.2,23.1,14.2,23.1z M14.1,23.1C14,23,13.9,23,13.9,22.9c0,0-0.1-0.1-0.1-0.1c-0.1-0.1-0.2-0.2-0.2-0.2
	c-0.1,0-0.1,0.1-0.3,0.2c0,0,0.1,0,0.1,0C13.6,23,13.8,23.3,14.1,23.1z M13.8,22.7c0-0.2,0.1-0.3,0.1-0.5c0-0.1-0.1-0.2-0.2-0.3
	C13.7,22.2,13.4,22.4,13.8,22.7C13.8,22.7,13.8,22.7,13.8,22.7z M13.5,22.3c0-0.2,0.2-0.3,0.2-0.5c0-0.1,0-0.2-0.1-0.3
	C13.5,21.8,13.1,21.9,13.5,22.3C13.5,22.3,13.5,22.3,13.5,22.3z M13.2,21.9c0-0.2,0.2-0.3,0.2-0.5c0-0.1,0-0.2-0.1-0.3
	C13.3,21.3,12.9,21.5,13.2,21.9C13.2,21.9,13.2,21.9,13.2,21.9z M18.9,16.2c0,0,0.1,0,0.1,0c0.2,0.1,0.3,0.2,0.3,0.2
	c0,0,0.1,0,0.1,0c0,0,0.1-0.1,0.1-0.1c0.1-0.2,0.2-0.3,0.3-0.3c0.1-0.2,0.2-0.3,0.3-0.3c0.1-0.2,0.2-0.3,0.3-0.3
	c0.1-0.2,0.2-0.3,0.3-0.3c0.1-0.2,0.2-0.3,0.3-0.3c0.1-0.2,0.2-0.3,0.3-0.3c0.1-0.2,0.2-0.3,0.3-0.3c0.1-0.2,0.2-0.3,0.3-0.3
	c0,0,0-0.1-0.1-0.1c-0.3-0.1-0.5-0.3-0.6-0.5c-0.3-0.1-0.5-0.2-0.6-0.4c-0.4-0.1-0.5-0.2-0.6-0.3c-0.4,0-0.6-0.2-0.7-0.3
	c-0.4,0-0.6-0.1-0.7-0.2c-0.4,0-0.6-0.1-0.7-0.2c-0.4,0-0.6,0-0.7-0.1c-0.1,0-0.3,0-0.4,0c0,0,0,0.1,0,0.1c0,0.2,0,0.4,0,0.5
	c0,0.2,0,0.4,0,0.5c0,0.2,0,0.4,0,0.5c0,0.2,0,0.4,0,0.5c0,0.2,0,0.4,0,0.5c0,0.2,0,0.4,0,0.5c0,0.2,0,0.4,0,0.5c0,0.2,0,0.4,0,0.5
	c0.1,0,0.1,0,0.1,0c0,0,0.1,0,0.1,0c0.2,0,0.3,0,0.4,0.1c0,0,0.1,0,0.1,0c0.2,0,0.3,0.1,0.4,0.2c0,0,0.1,0,0.1,0
	C18.7,16.1,18.8,16.1,18.9,16.2z M19.4,16.6c0,0.2-0.1,0.3-0.1,0.5c0,0.1,0.1,0.2,0.2,0.3C19.6,17.2,19.9,16.9,19.4,16.6
	C19.4,16.7,19.4,16.6,19.4,16.6z M19,16.9c0,0.1,0.1,0.1,0.2,0.2c0-0.2,0.3-0.5-0.2-0.7c0,0,0,0,0,0C19,16.5,18.9,16.7,19,16.9z
	 M19.5,16.6c0.1,0.1,0.2,0.2,0.2,0.2c0,0,0.1,0.1,0.1,0.1C19.9,17,20,17,20,17.1c0.1,0,0.2-0.1,0.3-0.2c-0.1,0-0.2-0.1-0.3-0.2l0,0
	c-0.1-0.1-0.1-0.1-0.2-0.1c0,0,0,0-0.1,0C19.6,16.5,19.6,16.5,19.5,16.6z M19.8,17c0,0.2-0.1,0.3-0.1,0.5c0,0.1,0.1,0.2,0.2,0.3
	C19.9,17.5,20.2,17.4,19.8,17C19.8,17,19.8,17,19.8,17z M20.1,17.2C20.1,17.2,20.1,17.2,20.1,17.2c0,0.1,0.1,0.1,0.1,0.1
	c0.1,0.1,0.2,0.3,0.2,0.4c0,0,0.1,0.1,0.1,0.1c0.1,0.2,0.2,0.3,0.2,0.4c0,0,0.1,0.1,0.1,0.1c0.1,0.2,0.1,0.3,0.1,0.4
	c0,0,0,0.1,0,0.1C21,18.9,21,19,21,19.1c0,0,0,0.1,0,0.1c0,0,0,0.1,0,0.1c0,0,0.1,0,0.1,0c0.2,0,0.4,0,0.5,0c0.2,0,0.4,0,0.5,0
	c0.2,0,0.4,0,0.5,0c0.2,0,0.4,0,0.5,0c0.2,0,0.4,0,0.5,0c0.2,0,0.4,0,0.5,0c0.2,0,0.4,0,0.5,0c0.2,0,0.4,0,0.5,0c0-0.1,0-0.1,0-0.1
	C25,18.9,25,18.7,25,18.5c-0.2-0.3-0.2-0.5-0.1-0.7c-0.2-0.3-0.2-0.5-0.2-0.7c-0.2-0.3-0.3-0.5-0.3-0.7c-0.2-0.3-0.3-0.5-0.3-0.6
	c-0.3-0.2-0.4-0.4-0.4-0.6c-0.3-0.2-0.4-0.4-0.4-0.6c-0.1-0.1-0.2-0.2-0.3-0.2c0,0-0.1,0-0.1,0.1c-0.1,0.2-0.2,0.3-0.3,0.3
	c-0.1,0.2-0.2,0.3-0.3,0.3c-0.1,0.2-0.2,0.3-0.3,0.3c-0.1,0.2-0.2,0.3-0.3,0.3c-0.1,0.2-0.2,0.3-0.3,0.3c-0.1,0.2-0.2,0.3-0.3,0.3
	c-0.1,0.2-0.2,0.3-0.3,0.3C20.3,17,20.2,17.2,20.1,17.2z M20.1,17.4c0,0.2-0.2,0.3-0.2,0.5c0,0.1,0,0.2,0.1,0.3
	C20.1,18,20.5,17.8,20.1,17.4C20.1,17.4,20.1,17.4,20.1,17.4z M20.4,17.8c0,0.2-0.2,0.3-0.2,0.5c0,0.1,0,0.2,0.1,0.3
	C20.4,18.4,20.7,18.3,20.4,17.8C20.4,17.8,20.4,17.8,20.4,17.8z M20.6,18.3c-0.1,0.2-0.2,0.3-0.3,0.4c0,0.1,0,0.2,0.1,0.3
	C20.5,18.8,20.9,18.8,20.6,18.3C20.6,18.3,20.6,18.3,20.6,18.3z M20.8,18.8c-0.1,0.1-0.3,0.2-0.4,0.4c0,0.1,0,0.2,0,0.3
	C20.6,19.3,21,19.3,20.8,18.8C20.8,18.8,20.8,18.8,20.8,18.8z M20.9,19.3c-0.1,0.1-0.3,0.2-0.4,0.3c0,0.1-0.1,0.2,0,0.3
	C20.7,19.8,21,19.8,20.9,19.3C20.9,19.3,20.9,19.3,20.9,19.3z M21,19.5c0,0.1,0,0.1,0,0.2c0,0,0,0.1,0,0.1c0,0.2,0,0.3,0,0.4
	c0.1,0,0.2,0,0.4,0c0,0,0,0,0-0.1C21.2,19.9,21.4,19.6,21,19.5z M20.9,19.8c-0.1,0.1-0.3,0.2-0.4,0.3c0,0.1-0.1,0.2-0.1,0.3
	C20.6,20.3,21,20.4,20.9,19.8C21,19.8,20.9,19.8,20.9,19.8z M20.9,20.3c-0.1,0.1-0.3,0.1-0.5,0.2c-0.1,0.1-0.1,0.1-0.1,0.3
	C20.5,20.8,20.9,20.9,20.9,20.3C20.9,20.4,20.9,20.3,20.9,20.3z M20.8,20.8c-0.1,0.1-0.3,0.1-0.5,0.2c-0.1,0-0.1,0.1-0.1,0.3
	C20.4,21.2,20.8,21.4,20.8,20.8C20.8,20.9,20.8,20.9,20.8,20.8z M18.6,16.6c0,0.1,0.1,0.1,0.3,0.2c0-0.2,0.2-0.5-0.3-0.7
	c0,0,0,0,0,0C18.6,16.2,18.5,16.4,18.6,16.6z M15.5,15.9c0.1,0.1,0.2,0.2,0.4,0.3c0.1,0,0.2,0,0.3,0C16,16.1,16,15.7,15.5,15.9
	C15.5,15.9,15.5,15.9,15.5,15.9z M16,15.8c0.1,0.1,0.2,0.3,0.4,0.4c0.1,0,0.2,0,0.3,0C16.5,16,16.5,15.6,16,15.8
	C16,15.8,16,15.8,16,15.8z M21.3,19.5c0.1,0.1,0.1,0.2,0.1,0.4h0c0.1,0.3,0,0.4,0.5,0.4c0,0,0,0,0-0.1
	C21.7,19.8,21.9,19.4,21.3,19.5z M21.8,19.5c0.1,0.1,0.1,0.2,0.1,0.4h0c0.1,0.3,0,0.4,0.5,0.4c0,0,0,0,0-0.1
	C22.2,19.8,22.4,19.4,21.8,19.5z M22.9,20.1C22.9,20.1,22.9,20.1,22.9,20.1c0.1,0.2,0.2,0.2,0.4,0.1c0,0,0-0.1,0-0.1
	c-0.1-0.3,0.1-0.7-0.5-0.6c0.1,0.1,0.1,0.2,0.1,0.4h0C22.9,19.9,22.9,20,22.9,20.1z M22.3,19.5c0.1,0.1,0.1,0.2,0.1,0.4h0
	c0.1,0.3,0,0.4,0.5,0.4c0,0,0-0.1,0-0.1C22.7,19.8,22.9,19.4,22.3,19.5z M23.4,20.1C23.4,20.1,23.4,20.1,23.4,20.1
	c0.1,0.2,0.2,0.2,0.4,0.1c0,0,0-0.1,0-0.1c-0.1-0.3,0.1-0.7-0.5-0.6c0.1,0.1,0.1,0.2,0.1,0.4h0C23.4,19.9,23.4,20,23.4,20.1z
	 M23.9,20.1C23.9,20.1,23.9,20.1,23.9,20.1c0.1,0.2,0.2,0.2,0.4,0.1c0,0,0-0.1,0-0.1c-0.1-0.3,0.1-0.7-0.5-0.6
	c0.1,0.1,0.1,0.2,0.1,0.4h0C23.9,19.9,23.9,20,23.9,20.1z M24.4,20.1C24.4,20.1,24.4,20.1,24.4,20.1c0.1,0.2,0.2,0.2,0.4,0.1
	c0,0,0-0.1,0-0.1c-0.1-0.3,0.1-0.7-0.5-0.6c0.1,0.1,0.1,0.2,0.1,0.4h0C24.3,19.9,24.4,20,24.4,20.1z M24.9,20.1
	C24.9,20.1,24.9,20.1,24.9,20.1c0.1,0.1,0.1,0.1,0.2,0.1c0-0.1,0-0.2,0.1-0.2c-0.1-0.2-0.1-0.3-0.1-0.5c-0.1,0-0.2,0-0.3,0
	c0.1,0.1,0.1,0.2,0.1,0.4h0C24.8,19.9,24.8,20,24.9,20.1z M17.2,29.1C17.2,29.1,17.2,29.1,17.2,29.1c-0.4,0.1-0.7,0.1-0.8,0
	c0,0-0.1,0-0.1,0c-0.3,0-0.6,0-0.7-0.1c0,0-0.1,0-0.1,0c-0.3,0-0.6,0-0.7-0.1c0,0-0.1,0-0.1,0c-0.3,0-0.6-0.1-0.7-0.2
	c0,0-0.1,0-0.1,0c-0.3-0.1-0.5-0.1-0.7-0.3c0,0-0.1,0-0.1,0c-0.3-0.1-0.5-0.2-0.6-0.3c0,0-0.1,0-0.1,0c-0.3-0.1-0.5-0.2-0.6-0.4
	c0,0-0.1,0-0.1,0c-0.3-0.1-0.5-0.3-0.6-0.4c0,0-0.1,0-0.1,0c-0.3-0.2-0.5-0.3-0.5-0.5c0,0-0.1,0-0.1-0.1c-0.3-0.2-0.4-0.4-0.5-0.5
	c0,0-0.1-0.1-0.1-0.1c-0.3-0.2-0.4-0.4-0.4-0.6c0,0-0.1-0.1-0.1-0.1C9.1,25.2,9,25,9,24.9c0,0-0.1-0.1-0.1-0.1
	c-0.2-0.3-0.3-0.5-0.3-0.6c0,0-0.1-0.1-0.1-0.1c-0.2-0.3-0.3-0.5-0.3-0.7c0,0-0.1-0.1-0.1-0.1C8,23.1,8,22.8,8,22.7c0,0,0-0.1,0-0.1
	c-0.2-0.3-0.2-0.5-0.2-0.7c0,0,0-0.1,0-0.1c-0.1-0.3-0.1-0.5-0.1-0.7c0,0,0-0.1,0-0.1c-0.1-0.3-0.1-0.6,0-0.7c0,0,0-0.1,0-0.1
	c-0.1-0.3-0.1-0.6,0-0.7c0,0,0-0.1,0-0.1c0-0.3,0-0.6,0.1-0.7c0,0,0-0.1,0-0.1c0-0.3,0-0.6,0.1-0.7c0,0,0-0.1,0-0.1
	c0-0.3,0.1-0.6,0.2-0.7c0,0,0-0.1,0-0.1c0.1-0.3,0.1-0.5,0.3-0.7c0,0,0-0.1,0-0.1c0.1-0.3,0.2-0.5,0.3-0.6c0,0,0-0.1,0-0.1
	C8.7,15.2,8.8,15,9,14.9c0,0,0-0.1,0-0.1c0.1-0.3,0.3-0.5,0.4-0.6c0,0,0-0.1,0-0.1c0.2-0.3,0.3-0.5,0.5-0.5c0,0,0-0.1,0.1-0.1
	c0.2-0.3,0.4-0.4,0.5-0.5c0,0,0.1-0.1,0.1-0.1c0.2-0.3,0.4-0.4,0.6-0.4c0,0,0.1-0.1,0.1-0.1c0.2-0.3,0.4-0.4,0.6-0.4
	c0,0,0.1-0.1,0.1-0.1c0.3-0.2,0.5-0.3,0.6-0.3c0,0,0.1-0.1,0.1-0.1c0.3-0.2,0.5-0.3,0.7-0.3c0,0,0.1-0.1,0.1-0.1
	c0.3-0.2,0.5-0.2,0.7-0.2c0,0,0.1,0,0.1,0c0.3-0.2,0.5-0.2,0.7-0.2c0,0,0.1,0,0.1,0c0.3-0.1,0.5-0.1,0.7-0.1c0,0,0.1,0,0.1,0
	c0.3-0.1,0.6-0.1,0.7,0c0,0,0.1,0,0.1,0c0.3-0.1,0.6-0.1,0.7,0c0,0,0.1,0,0.1,0c0.3,0,0.6,0,0.7,0.1c0,0,0.1,0,0.1,0
	c0.3,0,0.6,0,0.7,0.1c0,0,0.1,0,0.1,0c0.3,0,0.6,0.1,0.7,0.2c0,0,0.1,0,0.1,0c0.3,0.1,0.5,0.1,0.7,0.3c0,0,0.1,0,0.1,0
	c0.3,0.1,0.5,0.2,0.6,0.3c0,0,0.1,0,0.1,0c0.3,0.1,0.5,0.2,0.6,0.4c0,0,0.1,0,0.1,0c0.3,0.1,0.5,0.3,0.6,0.4c0,0,0.1,0,0.1,0
	c0.3,0.2,0.5,0.3,0.5,0.5c0,0,0.1,0,0.1,0.1c0.3,0.2,0.4,0.4,0.5,0.5c0,0,0.1,0.1,0.1,0.1c0.3,0.2,0.4,0.4,0.4,0.6
	c0,0,0.1,0.1,0.1,0.1c0.3,0.2,0.4,0.4,0.4,0.6c0,0,0.1,0.1,0.1,0.1c0.2,0.3,0.3,0.5,0.3,0.6c0,0,0.1,0.1,0.1,0.1
	c0.2,0.3,0.3,0.5,0.3,0.7c0,0,0.1,0.1,0.1,0.1c0.2,0.3,0.2,0.5,0.2,0.7c0,0,0,0.1,0,0.1c0.2,0.3,0.2,0.5,0.2,0.7c0,0,0,0.1,0,0.1
	c0.1,0.3,0.1,0.5,0.1,0.7c0,0,0,0.1,0,0.1c0.1,0.3,0.1,0.6,0,0.7c0,0,0,0.1,0,0.1c0.1,0.3,0.1,0.6,0,0.7c0,0,0,0.1,0,0.1
	c0,0.3,0,0.6-0.1,0.7c0,0,0,0.1,0,0.1c0,0.3,0,0.6-0.1,0.7c0,0,0,0.1,0,0.1c0,0.3-0.1,0.6-0.2,0.7c0,0,0,0.1,0,0.1
	c-0.1,0.3-0.1,0.5-0.3,0.7c0,0,0,0.1,0,0.1c-0.1,0.3-0.2,0.5-0.3,0.6c0,0,0,0.1,0,0.1c-0.1,0.3-0.2,0.5-0.4,0.6c0,0,0,0.1,0,0.1
	c-0.1,0.3-0.3,0.5-0.4,0.6c0,0,0,0.1,0,0.1c-0.2,0.3-0.3,0.5-0.5,0.5c0,0,0,0.1-0.1,0.1c-0.2,0.3-0.4,0.4-0.5,0.5
	c0,0-0.1,0.1-0.1,0.1c-0.2,0.3-0.4,0.4-0.6,0.4c0,0-0.1,0.1-0.1,0.1c-0.2,0.3-0.4,0.4-0.6,0.4c0,0-0.1,0.1-0.1,0.1
	c-0.3,0.2-0.5,0.3-0.6,0.3c0,0-0.1,0.1-0.1,0.1c-0.3,0.2-0.5,0.3-0.7,0.3c0,0-0.1,0.1-0.1,0.1c-0.3,0.2-0.5,0.2-0.7,0.2
	c0,0-0.1,0-0.1,0c-0.3,0.2-0.5,0.2-0.7,0.2c0,0-0.1,0-0.1,0c-0.3,0.1-0.5,0.1-0.7,0.1c0,0-0.1,0-0.1,0
	C17.6,29.2,17.4,29.2,17.2,29.1z M16.3,29c-0.2-0.2-0.2-0.5-0.4-0.7c-0.1-0.1-0.2-0.1-0.5-0.1C15.6,28.5,15.4,29.1,16.3,29
	C16.2,29,16.2,29,16.3,29L16.3,29z M16.4,28.1c0.1,0,0.2,0,0.2,0.1c0.2-0.1,0.4-0.1,0.5-0.1c0-0.1,0-0.2,0-0.3c0,0,0,0-0.1,0
	C16.8,27.9,16.5,27.8,16.4,28.1z M16.6,28.3c-0.1-0.1-0.2-0.1-0.5-0.1c0.2,0.3,0.1,0.9,1,0.7c0,0,0,0,0,0l0,0
	C16.9,28.8,16.8,28.5,16.6,28.3z M15.5,28.9c-0.1-0.2-0.2-0.5-0.3-0.7C15,28.1,14.9,28,14.6,28C14.8,28.3,14.6,28.9,15.5,28.9
	C15.4,28.9,15.4,28.9,15.5,28.9L15.5,28.9z M14.7,28.7c-0.1-0.2-0.1-0.5-0.3-0.8c-0.1-0.1-0.2-0.2-0.5-0.2
	C14.1,28.1,13.8,28.7,14.7,28.7C14.7,28.7,14.7,28.7,14.7,28.7L14.7,28.7z M13.9,28.5c-0.1-0.2-0.1-0.5-0.2-0.8
	c-0.1-0.1-0.2-0.2-0.5-0.2C13.4,27.9,13.1,28.4,13.9,28.5C13.9,28.5,13.9,28.5,13.9,28.5L13.9,28.5z M13.2,28.2
	c-0.1-0.2,0-0.5-0.1-0.8c-0.1-0.1-0.2-0.2-0.4-0.3C12.7,27.5,12.4,28,13.2,28.2C13.1,28.2,13.1,28.2,13.2,28.2L13.2,28.2z
	 M12.4,27.9c-0.1-0.2,0-0.5-0.1-0.8c-0.1-0.1-0.2-0.2-0.4-0.3C12,27.2,11.7,27.6,12.4,27.9C12.4,27.9,12.4,27.9,12.4,27.9L12.4,27.9
	z M11.8,27.5c0-0.2,0.1-0.5,0-0.8c0-0.1-0.1-0.2-0.4-0.3C11.4,26.7,11,27.1,11.8,27.5C11.7,27.5,11.7,27.5,11.8,27.5L11.8,27.5z
	 M11.1,27c0-0.3,0.1-0.5,0.1-0.8c0-0.1-0.1-0.2-0.3-0.4C10.8,26.2,10.4,26.6,11.1,27C11.1,27,11.1,27,11.1,27L11.1,27z M10.5,26.5
	c0-0.3,0.1-0.5,0.1-0.8c0-0.1-0.1-0.2-0.3-0.4C10.3,25.7,9.8,26,10.5,26.5C10.5,26.5,10.5,26.5,10.5,26.5L10.5,26.5z M10.8,25.7
	c0.2,0.1,0.3,0.2,0.4,0.3c0.1,0,0.2-0.1,0.2-0.2c-0.1,0-0.2-0.1-0.3-0.2l0,0c-0.1-0.1-0.1-0.1-0.2-0.1c0,0,0,0-0.1,0
	c-0.1,0-0.1,0-0.2,0C10.8,25.5,10.8,25.6,10.8,25.7z M10,25.9c0-0.3,0.2-0.5,0.2-0.8c0-0.1-0.1-0.3-0.3-0.4
	C9.8,25.1,9.3,25.4,10,25.9C9.9,25.9,9.9,25.9,10,25.9L10,25.9z M21.6,27.6c-0.2-0.1-0.4-0.3-0.7-0.3c-0.1,0-0.3,0-0.5,0.2
	C20.7,27.6,21,28.2,21.6,27.6C21.6,27.7,21.6,27.7,21.6,27.6L21.6,27.6z M21.5,26.9c-0.1,0-0.3,0.1-0.5,0.2c0.4,0.1,0.6,0.6,1.2,0.1
	c0,0,0,0,0,0l0,0C22,27.2,21.8,27,21.5,26.9z M20.9,28c-0.2-0.1-0.4-0.3-0.7-0.4c-0.1,0-0.3,0-0.5,0.2C20,27.9,20.2,28.5,20.9,28
	C20.9,28,20.9,28,20.9,28L20.9,28z M20.2,28.4c-0.2-0.1-0.4-0.3-0.7-0.5c-0.1,0-0.3,0-0.5,0.1C19.3,28.2,19.4,28.8,20.2,28.4
	C20.1,28.4,20.1,28.4,20.2,28.4L20.2,28.4z M19.4,28.6c-0.2-0.1-0.4-0.4-0.6-0.5c-0.1,0-0.3,0-0.5,0.1C18.6,28.4,18.7,29,19.4,28.6
	C19.4,28.6,19.4,28.6,19.4,28.6L19.4,28.6z M18.6,28.8c-0.2-0.1-0.3-0.4-0.6-0.6c-0.1-0.1-0.3-0.1-0.5,0
	C17.8,28.5,17.8,29.1,18.6,28.8C18.6,28.8,18.6,28.8,18.6,28.8L18.6,28.8z M17.8,28.9c-0.2-0.2-0.3-0.4-0.5-0.6
	c-0.1-0.1-0.3-0.1-0.5,0C17.1,28.6,17,29.2,17.8,28.9C17.8,28.9,17.8,28.9,17.8,28.9L17.8,28.9z M22.9,26.7c-0.3,0-0.5-0.2-0.8-0.2
	c-0.1,0-0.3,0.1-0.4,0.3C22,26.8,22.3,27.3,22.9,26.7C22.9,26.7,22.9,26.7,22.9,26.7L22.9,26.7z M22.4,25.9c0.1-0.1,0.2-0.1,0.2-0.1
	c0.1-0.2,0.2-0.3,0.3-0.4c0-0.1-0.1-0.2-0.2-0.3c0,0.1-0.1,0.2-0.2,0.3l0,0c-0.1,0.1-0.1,0.1-0.1,0.2c0,0,0,0,0,0.1
	C22.3,25.8,22.3,25.9,22.4,25.9z M22.6,26c-0.1,0-0.2,0.1-0.4,0.3c0.4,0,0.7,0.5,1.2-0.2c0,0,0,0,0,0l0,0C23.2,26.1,22.9,26,22.6,26
	z M24.4,24.9c-0.2,0-0.5-0.1-0.8,0c-0.1,0-0.2,0.1-0.3,0.4C23.7,25.2,24.1,25.7,24.4,24.9C24.4,24.9,24.4,24.9,24.4,24.9L24.4,24.9z
	 M24,24.3c-0.1,0.1-0.2,0.2-0.3,0.4c0.4-0.1,0.8,0.3,1.1-0.5c0,0,0,0,0,0l0,0C24.6,24.3,24.3,24.2,24,24.3z M24,25.5
	c-0.3,0-0.5-0.1-0.8-0.1c-0.1,0-0.2,0.1-0.4,0.3C23.2,25.8,23.6,26.3,24,25.5C24,25.6,24,25.6,24,25.5L24,25.5z M25.7,22
	c-0.2,0.1-0.5,0.1-0.8,0.3c-0.1,0.1-0.2,0.2-0.2,0.5C25.1,22.6,25.6,22.8,25.7,22C25.7,22,25.7,22,25.7,22L25.7,22z M25.1,21.5
	C25,21.6,25,21.8,25,22c0.3-0.2,0.9,0,0.9-0.8c0,0,0,0,0,0l0,0C25.6,21.3,25.3,21.4,25.1,21.5z M25.5,22.7c-0.2,0.1-0.5,0.1-0.8,0.2
	c-0.1,0.1-0.2,0.2-0.2,0.5C24.8,23.3,25.3,23.6,25.5,22.7C25.5,22.8,25.5,22.8,25.5,22.7L25.5,22.7z M25.2,23.5
	c-0.2,0.1-0.5,0-0.8,0.1c-0.1,0.1-0.2,0.2-0.3,0.4C24.5,24,25,24.3,25.2,23.5C25.2,23.5,25.2,23.5,25.2,23.5L25.2,23.5z M25.8,18
	c-0.1,0.2-0.4,0.3-0.6,0.6c-0.1,0.1-0.1,0.3,0,0.5C25.4,18.8,26.1,18.8,25.8,18C25.8,18,25.8,18,25.8,18L25.8,18z M25,17.9
	c0,0.1,0,0.3,0.1,0.5c0.2-0.3,0.8-0.4,0.5-1.1c0,0,0,0,0,0l0,0C25.4,17.5,25.2,17.6,25,17.9z M25.9,18.8c-0.2,0.2-0.4,0.3-0.6,0.5
	c-0.1,0.1-0.1,0.3,0,0.5C25.5,19.6,26.1,19.6,25.9,18.8C25.9,18.8,25.9,18.8,25.9,18.8L25.9,18.8z M25.9,19.6
	c-0.2,0.2-0.5,0.3-0.7,0.5c-0.1,0.1-0.1,0.2-0.1,0.5C25.5,20.3,26.1,20.4,25.9,19.6C25.9,19.6,25.9,19.6,25.9,19.6L25.9,19.6z
	 M25.9,20.4c-0.2,0.2-0.5,0.2-0.7,0.4c-0.1,0.1-0.1,0.2-0.1,0.5C25.4,21.1,26,21.2,25.9,20.4C25.9,20.4,25.9,20.4,25.9,20.4
	L25.9,20.4z M24.6,15.1c-0.1,0.2-0.3,0.4-0.3,0.7c0,0.1,0,0.3,0.2,0.5C24.6,15.9,25.1,15.7,24.6,15.1C24.6,15.1,24.6,15.1,24.6,15.1
	L24.6,15.1z M23.9,15.2c0,0.1,0.1,0.3,0.2,0.5c0.1-0.4,0.6-0.6,0.1-1.2c0,0,0,0,0,0l0,0C24.1,14.7,23.9,14.9,23.9,15.2z M25,15.8
	c-0.1,0.2-0.3,0.4-0.4,0.7c0,0.1,0,0.3,0.2,0.5C24.9,16.6,25.5,16.4,25,15.8C25,15.8,25,15.8,25,15.8L25,15.8z M25.3,16.5
	c-0.1,0.2-0.3,0.4-0.5,0.7c0,0.1,0,0.3,0.1,0.5C25.1,17.3,25.7,17.2,25.3,16.5C25.3,16.5,25.3,16.5,25.3,16.5L25.3,16.5z M23.6,13.8
	c0,0.3-0.2,0.5-0.2,0.8c0,0.1,0.1,0.3,0.3,0.4C23.8,14.6,24.3,14.3,23.6,13.8C23.7,13.8,23.7,13.8,23.6,13.8L23.6,13.8z M22.9,14.3
	c-0.1-0.1-0.1-0.1-0.1-0.2c-0.2-0.1-0.3-0.2-0.4-0.3c-0.1,0-0.1,0.1-0.2,0.2c0,0,0.1,0,0.1,0C22.5,14.1,22.6,14.5,22.9,14.3z
	 M22.9,14c0,0.1,0.1,0.2,0.3,0.4c0-0.4,0.5-0.7-0.2-1.2c0,0,0,0,0,0l0,0C23.1,13.5,22.9,13.7,22.9,14z M10.9,25.3
	C10.9,25.3,10.9,25.3,10.9,25.3c0.4,0.2,0.5,0.6,0.9,0.1c-0.1,0-0.2-0.1-0.3-0.2l0,0c-0.1-0.1-0.1-0.1-0.2-0.1c0,0,0,0-0.1,0
	C11.1,25,11,25.1,10.9,25.3z M11.2,24.9c0,0,0.1,0,0.1,0c0.3,0.1,0.4,0.5,0.8,0.1c-0.1,0-0.2-0.1-0.3-0.2l0,0
	c-0.1-0.1-0.1-0.1-0.2-0.1c0,0,0,0-0.1,0C11.5,24.7,11.4,24.7,11.2,24.9z M11.6,24.6c0,0,0.1,0,0.1,0c0.3,0.1,0.4,0.5,0.8,0.1
	c-0.1,0-0.2-0.1-0.3-0.2l0,0c-0.1-0.1-0.1-0.1-0.2-0.1c0,0,0,0-0.1,0C11.8,24.3,11.7,24.4,11.6,24.6z M11.9,24.2c0,0,0.1,0,0.1,0
	c0.3,0.1,0.4,0.5,0.8,0.1c-0.1,0-0.2-0.1-0.3-0.2l0,0c-0.1-0.1-0.1-0.1-0.2-0.1c0,0,0,0-0.1,0C12.2,24,12.1,24,11.9,24.2z
	 M12.3,23.9c0,0,0.1,0,0.1,0c0.3,0.1,0.4,0.5,0.8,0.1c-0.1,0-0.2-0.1-0.3-0.2l0,0C12.6,23.6,12.5,23.5,12.3,23.9z M12.6,23.5
	C12.6,23.5,12.7,23.5,12.6,23.5c0.4,0.2,0.5,0.6,0.9,0.1c-0.1,0-0.2-0.1-0.3-0.2l0,0C12.9,23.3,12.9,23.2,12.6,23.5z M13,23.2
	C13,23.2,13,23.2,13,23.2c0.4,0.2,0.5,0.6,0.9,0.1c-0.1,0-0.2-0.1-0.3-0.2l0,0C13.3,22.9,13.2,22.8,13,23.2z M19.7,16.4
	C19.8,16.4,19.8,16.4,19.7,16.4c0.4,0.2,0.5,0.6,0.9,0.1c-0.1,0-0.2-0.1-0.3-0.2l0,0c-0.1-0.1-0.1-0.1-0.2-0.1c0,0,0,0-0.1,0
	C20,16.2,19.9,16.2,19.7,16.4z M20.1,16.1c0,0,0.1,0,0.1,0c0.3,0.1,0.4,0.5,0.8,0.1c-0.1,0-0.2-0.1-0.3-0.2l0,0
	c-0.1-0.1-0.1-0.1-0.2-0.1c0,0,0,0-0.1,0C20.3,15.8,20.2,15.9,20.1,16.1z M20.4,15.7c0,0,0.1,0,0.1,0c0.3,0.1,0.4,0.5,0.8,0.1
	c-0.1,0-0.2-0.1-0.3-0.2l0,0c-0.1-0.1-0.1-0.1-0.2-0.1c0,0,0,0-0.1,0C20.6,15.5,20.6,15.5,20.4,15.7z M20.8,15.4c0,0,0.1,0,0.1,0
	c0.3,0.1,0.4,0.5,0.8,0.1c-0.1,0-0.2-0.1-0.3-0.2l0,0c-0.1-0.1-0.1-0.1-0.2-0.1c0,0,0,0-0.1,0C21,15.1,20.9,15.2,20.8,15.4z
	 M21.1,15c0,0,0.1,0,0.1,0c0.3,0.1,0.4,0.5,0.8,0.1c-0.1,0-0.2-0.1-0.3-0.2l0,0C21.4,14.8,21.4,14.7,21.1,15z M21.4,14.7
	C21.5,14.7,21.5,14.7,21.4,14.7c0.4,0.2,0.5,0.6,0.9,0.1c-0.1,0-0.2-0.1-0.3-0.2l0,0C21.8,14.4,21.7,14.4,21.4,14.7z M21.8,14.4
	C21.8,14.4,21.8,14.4,21.8,14.4c0.4,0.2,0.5,0.6,0.9,0.1c-0.1,0-0.2-0.1-0.3-0.2l0,0C22.1,14.1,22.1,14,21.8,14.4z M12.3,20.2
	C12.3,20.2,12.3,20.2,12.3,20.2c-0.2-0.4,0-0.8-0.6-0.7c0.1,0.1,0.1,0.2,0.1,0.4h0c0,0.1,0,0.2,0,0.2c0,0,0,0,0,0.1
	C12,20.2,12.1,20.2,12.3,20.2z M11.8,20.2C11.8,20.2,11.8,20.2,11.8,20.2c-0.2-0.4,0-0.8-0.6-0.7c0.1,0.1,0.1,0.2,0.1,0.4h0
	c0,0.1,0,0.2,0,0.2c0,0,0,0,0,0.1C11.5,20.2,11.6,20.2,11.8,20.2z M11.3,20.2C11.3,20.2,11.3,20.2,11.3,20.2c-0.2-0.4,0-0.8-0.6-0.7
	c0.1,0.1,0.1,0.2,0.1,0.4h0c0,0.1,0,0.2,0,0.2c0,0,0,0,0,0.1C11,20.2,11.1,20.2,11.3,20.2z M10.8,20.2
	C10.8,20.2,10.8,20.2,10.8,20.2c-0.2-0.4,0-0.8-0.6-0.7c0.1,0.1,0.1,0.2,0.1,0.4h0c0,0.1,0,0.2,0,0.2c0,0,0,0,0,0.1
	C10.5,20.2,10.6,20.2,10.8,20.2z M10.4,20.2C10.3,20.2,10.3,20.2,10.4,20.2c-0.2-0.4,0-0.8-0.6-0.7c0.1,0.1,0.1,0.2,0.1,0.4h0
	C9.9,20.2,9.9,20.3,10.4,20.2z M9.9,20.2C9.8,20.2,9.8,20.2,9.9,20.2c-0.2-0.4,0-0.8-0.6-0.7c0.1,0.1,0.1,0.2,0.1,0.4h0
	C9.4,20.2,9.4,20.3,9.9,20.2z M9.4,20.2C9.4,20.2,9.3,20.2,9.4,20.2c-0.2-0.4,0-0.8-0.6-0.7c0.1,0.1,0.1,0.2,0.1,0.4h0
	C9,20.2,8.9,20.3,9.4,20.2z M8.9,20.2C8.9,20.2,8.9,20.2,8.9,20.2c-0.1-0.3,0-0.7-0.3-0.7c0,0.1,0,0.2-0.1,0.2
	c0.1,0.2,0.1,0.4,0.1,0.5C8.6,20.2,8.7,20.2,8.9,20.2z M22.2,25.8c0,0,0-0.1,0-0.1c0.1-0.3,0.5-0.4,0.1-0.8c0,0.1-0.1,0.2-0.2,0.3
	l0,0c-0.1,0.1-0.1,0.1-0.1,0.2c0,0,0,0,0,0.1C21.9,25.5,22,25.6,22.2,25.8z M21.9,25.4c0,0,0-0.1,0-0.1c0.1-0.3,0.5-0.4,0.1-0.8
	c0,0.1-0.1,0.2-0.2,0.3l0,0c-0.1,0.1-0.1,0.1-0.1,0.2c0,0,0,0,0,0.1C21.6,25.2,21.7,25.3,21.9,25.4z M21.5,25.1c0,0,0-0.1,0-0.1
	c0.1-0.3,0.5-0.4,0.1-0.8c0,0.1-0.1,0.2-0.2,0.3l0,0c-0.1,0.1-0.1,0.1-0.1,0.2c0,0,0,0,0,0.1C21.3,24.8,21.3,24.9,21.5,25.1z
	 M21.2,24.7c0,0,0-0.1,0-0.1c0.1-0.3,0.5-0.4,0.1-0.8c0,0.1-0.1,0.2-0.2,0.3l0,0C21,24.2,21,24.3,21,24.3c0,0,0,0,0,0.1
	C20.9,24.5,21,24.6,21.2,24.7z M20.8,24.4c0,0,0-0.1,0-0.1c0.1-0.3,0.5-0.4,0.1-0.8c0,0.1-0.1,0.2-0.2,0.3l0,0
	C20.6,24.1,20.5,24.1,20.8,24.4z M20.5,24C20.5,24,20.5,24,20.5,24c0.2-0.4,0.6-0.5,0.1-0.9c0,0.1-0.1,0.2-0.2,0.3l0,0
	C20.2,23.7,20.1,23.8,20.5,24z M20.1,23.7C20.1,23.7,20.1,23.6,20.1,23.7c0.2-0.4,0.6-0.5,0.1-0.9c0,0.1-0.1,0.2-0.2,0.3l0,0
	C19.9,23.4,19.8,23.4,20.1,23.7z M13.4,16.9C13.4,16.9,13.4,16.9,13.4,16.9c0.2-0.4,0.6-0.5,0.1-0.9c0,0.1-0.1,0.2-0.2,0.3l0,0
	c-0.1,0.1-0.1,0.1-0.1,0.2c0,0,0,0,0,0.1C13.1,16.7,13.2,16.8,13.4,16.9z M13,16.6c0,0,0-0.1,0-0.1c0.1-0.3,0.5-0.4,0.1-0.8
	c0,0.1-0.1,0.2-0.2,0.3l0,0c-0.1,0.1-0.1,0.1-0.1,0.2c0,0,0,0,0,0.1C12.8,16.3,12.8,16.4,13,16.6z M12.7,16.2c0,0,0-0.1,0-0.1
	c0.1-0.3,0.5-0.4,0.1-0.8c0,0.1-0.1,0.2-0.2,0.3l0,0c-0.1,0.1-0.1,0.1-0.1,0.2c0,0,0,0,0,0.1C12.4,16,12.5,16.1,12.7,16.2z
	 M12.3,15.9c0,0,0-0.1,0-0.1c0.1-0.3,0.5-0.4,0.1-0.8c0,0.1-0.1,0.2-0.2,0.3l0,0c-0.1,0.1-0.1,0.1-0.1,0.2c0,0,0,0,0,0.1
	C12.1,15.7,12.1,15.7,12.3,15.9z M12,15.6c0,0,0-0.1,0-0.1c0.1-0.3,0.5-0.4,0.1-0.8c0,0.1-0.1,0.2-0.2,0.3l0,0
	C11.7,15.2,11.6,15.3,12,15.6z M11.6,15.2C11.6,15.2,11.7,15.2,11.6,15.2c0.2-0.4,0.6-0.5,0.1-0.9c0,0.1-0.1,0.2-0.2,0.3l0,0
	C11.4,14.9,11.3,14.9,11.6,15.2z M11.3,14.9C11.3,14.8,11.3,14.8,11.3,14.9c0.2-0.4,0.6-0.5,0.1-0.9c0,0.1-0.1,0.2-0.2,0.3l0,0
	C11,14.5,10.9,14.6,11.3,14.9z M10.9,14.5C11,14.5,11,14.5,10.9,14.5c0.1-0.3,0.4-0.5,0.3-0.7c-0.1,0.1-0.1,0.1-0.2,0.1
	c-0.1,0.2-0.2,0.3-0.3,0.4C10.7,14.3,10.8,14.4,10.9,14.5z M9.7,24.5c0-0.1-0.1-0.3-0.2-0.5c-0.1,0.4-0.6,0.6-0.1,1.2c0,0,0,0,0,0
	l0,0C9.5,25.1,9.7,24.8,9.7,24.5z M9.4,23.9c0-0.1,0-0.3-0.2-0.5C9,23.8,8.5,24,9,24.6c0,0,0,0,0,0l0,0C9.1,24.4,9.3,24.2,9.4,23.9z
	 M9,23.2c0-0.1,0-0.3-0.2-0.5c-0.2,0.3-0.7,0.5-0.3,1.2c0,0,0,0,0,0l0,0C8.7,23.7,8.9,23.5,9,23.2z M8.8,22.6c0-0.1,0-0.3-0.1-0.5
	c-0.2,0.3-0.8,0.4-0.4,1.1c0,0,0,0,0,0l0,0C8.4,23,8.6,22.8,8.8,22.6z M8.6,21.8c0-0.1,0-0.3-0.1-0.5c-0.2,0.3-0.8,0.4-0.5,1.1
	c0,0,0,0,0,0l0,0C8.2,22.2,8.4,22.1,8.6,21.8z M8.4,21.1c0.1-0.1,0.1-0.3,0-0.5c-0.2,0.3-0.8,0.3-0.6,1.1c0,0,0,0,0,0l0,0
	C8,21.5,8.3,21.4,8.4,21.1z M8.3,20.4c0.1-0.1,0.1-0.3,0-0.5c-0.3,0.3-0.9,0.2-0.7,1c0,0,0,0,0,0l0,0C7.9,20.7,8.2,20.6,8.3,20.4z
	 M8.3,19.6c0.1-0.1,0.1-0.2,0.1-0.5c-0.3,0.2-0.9,0.1-0.7,1c0,0,0,0,0,0l0,0C7.8,19.9,8.1,19.9,8.3,19.6z M8.4,18.9
	c0.1-0.1,0.1-0.2,0.1-0.5c-0.3,0.2-0.9,0.1-0.8,0.9c0,0,0,0,0,0l0,0C7.9,19.2,8.2,19.1,8.4,18.9z M8.9,16.8c0.1-0.1,0.2-0.2,0.2-0.5
	c-0.4,0.1-0.9-0.2-1,0.6c0,0,0,0,0,0l0,0C8.4,16.9,8.6,16.9,8.9,16.8z M8.7,17.5c0.1-0.1,0.2-0.2,0.2-0.5c-0.3,0.2-0.9-0.1-1,0.7
	c0,0,0,0,0,0l0,0C8.1,17.6,8.4,17.6,8.7,17.5z M7.8,18.5c0.2-0.1,0.5-0.2,0.7-0.3c0.1-0.1,0.1-0.2,0.1-0.5
	C8.3,17.9,7.7,17.7,7.8,18.5C7.8,18.5,7.8,18.5,7.8,18.5L7.8,18.5z M12.1,12.8c0.1,0,0.3-0.1,0.5-0.2c-0.4-0.1-0.6-0.6-1.2-0.1
	c0,0,0,0,0,0l0,0C11.6,12.6,11.8,12.8,12.1,12.8z M11.5,13.2c0.1,0,0.3-0.1,0.4-0.3c-0.4-0.1-0.7-0.6-1.2,0c0,0,0,0,0,0l0,0
	C11,13,11.2,13.2,11.5,13.2z M8.4,16.2c0.2-0.1,0.5,0,0.8-0.1c0.1-0.1,0.2-0.2,0.3-0.4C9.1,15.8,8.6,15.4,8.4,16.2
	C8.4,16.2,8.4,16.2,8.4,16.2L8.4,16.2z M8.8,15.5c0.2-0.1,0.5,0,0.8-0.1c0.1-0.1,0.2-0.2,0.3-0.4C9.5,15.1,9,14.7,8.8,15.5
	C8.8,15.5,8.8,15.5,8.8,15.5L8.8,15.5z M9.2,14.8c0.2,0,0.5,0.1,0.8,0c0.1,0,0.2-0.1,0.3-0.4C9.9,14.5,9.5,14.1,9.2,14.8
	C9.2,14.8,9.2,14.8,9.2,14.8L9.2,14.8z M9.6,14.2c0.3,0,0.5,0.1,0.8,0.1c0.1,0,0.2-0.1,0.4-0.3C10.4,13.9,10,13.4,9.6,14.2
	C9.6,14.2,9.6,14.2,9.6,14.2L9.6,14.2z M10.2,13.6c0.3,0,0.5,0.1,0.8,0.1c0.1,0,0.2-0.1,0.4-0.3C11,13.4,10.6,12.9,10.2,13.6
	C10.2,13.6,10.2,13.6,10.2,13.6L10.2,13.6z M13.4,12.1c0.1,0,0.3,0,0.5-0.2c-0.3-0.2-0.5-0.7-1.2-0.3c0,0,0,0,0,0l0,0
	C12.9,11.8,13.1,12,13.4,12.1z M12.7,12.4c0.1,0,0.3,0,0.5-0.2c-0.4-0.1-0.6-0.7-1.2-0.2c0,0,0,0,0,0l0,0
	C12.3,12.1,12.5,12.3,12.7,12.4z M14.1,11.8c0.1,0,0.3,0,0.5-0.1c-0.3-0.2-0.4-0.8-1.1-0.4c0,0,0,0,0,0l0,0
	C13.7,11.5,13.8,11.7,14.1,11.8z M14.8,11.6c0.1,0,0.3,0,0.5-0.1c-0.3-0.2-0.4-0.8-1.1-0.5c0,0,0,0,0,0l0,0
	C14.4,11.2,14.6,11.5,14.8,11.6z M15.5,11.5c0.1,0.1,0.3,0.1,0.5,0c-0.3-0.2-0.3-0.8-1.1-0.6c0,0,0,0,0,0l0,0
	C15.2,11,15.3,11.3,15.5,11.5z M17.1,15.6c0-0.1,0-0.2,0-0.3c0,0,0,0-0.1,0c-0.3,0.1-0.6,0-0.7,0.3c0,0,0,0,0,0c0.2,0,0.3,0,0.4,0
	c0,0,0.1,0,0.1,0C17,15.6,17.1,15.6,17.1,15.6z M17.3,16.2c0.1,0.1,0.2,0.1,0.3,0.1c-0.1-0.2,0-0.6-0.5-0.6c0,0,0,0,0,0
	C17.1,15.9,17.1,16,17.3,16.2z M16.8,16.2c0.1,0,0.2,0.1,0.3,0C17,16,17,15.6,16.5,15.7c0,0,0,0,0,0C16.6,15.8,16.7,16,16.8,16.2z
	 M17.5,15.8c0.1,0.1,0.1,0.3,0.2,0.5c0.1,0.1,0.1,0.1,0.3,0.1C17.9,16.2,18.1,15.8,17.5,15.8C17.6,15.8,17.5,15.8,17.5,15.8z
	 M18,15.9c0.1,0.1,0.1,0.3,0.1,0.5c0,0.1,0.1,0.1,0.3,0.2C18.4,16.4,18.6,16,18,15.9C18.1,15.9,18,15.9,18,15.9z M17.2,11.6
	c-0.1,0-0.2,0-0.2-0.1c-0.2,0.1-0.3,0.1-0.5,0.1c0,0.1,0,0.2,0,0.3c0.1-0.1,0.2-0.1,0.4-0.1v0c0.1,0,0.2,0,0.2,0c0,0,0,0,0.1,0
	C17.1,11.7,17.2,11.7,17.2,11.6z M17.2,11.9C17.1,11.9,17.1,11.9,17.2,11.9c-0.4,0.2-0.8,0-0.7,0.6c0.1-0.1,0.2-0.1,0.4-0.1v0
	c0.1,0,0.2,0,0.2,0c0,0,0,0,0.1,0C17.2,12.2,17.2,12.1,17.2,11.9z M17.2,12.3C17.1,12.4,17.1,12.4,17.2,12.3c-0.4,0.2-0.8,0-0.7,0.6
	c0.1-0.1,0.2-0.1,0.4-0.1v0c0.1,0,0.2,0,0.2,0c0,0,0,0,0.1,0C17.2,12.7,17.2,12.6,17.2,12.3z M17.2,12.8
	C17.1,12.9,17.1,12.9,17.2,12.8c-0.4,0.2-0.8,0-0.7,0.6c0.1-0.1,0.2-0.1,0.4-0.1v0c0.1,0,0.2,0,0.2,0c0,0,0,0,0.1,0
	C17.2,13.2,17.2,13.1,17.2,12.8z M17.2,13.3C17.1,13.3,17.1,13.4,17.2,13.3c-0.4,0.2-0.8,0-0.7,0.6c0.1-0.1,0.2-0.1,0.4-0.1v0
	c0.1,0,0.2,0,0.2,0c0,0,0,0,0.1,0C17.2,13.7,17.2,13.6,17.2,13.3z M17.2,13.8C17.1,13.8,17.1,13.8,17.2,13.8c-0.4,0.2-0.8,0-0.7,0.6
	c0.1-0.1,0.2-0.1,0.4-0.1v0C17.1,14.2,17.2,14.2,17.2,13.8z M17.2,14.3C17.1,14.3,17.1,14.3,17.2,14.3c-0.4,0.2-0.8,0-0.7,0.6
	c0.1-0.1,0.2-0.1,0.4-0.1v0C17.1,14.7,17.2,14.7,17.2,14.3z M17.2,14.8C17.1,14.8,17.1,14.8,17.2,14.8c-0.4,0.2-0.8,0-0.7,0.6
	c0.1-0.1,0.2-0.1,0.4-0.1v0C17.1,15.2,17.2,15.2,17.2,14.8z M16.6,15.9C16.6,15.9,16.6,15.9,16.6,15.9L16.6,15.9L16.6,15.9z
	 M17.2,24.4C17.1,24.4,17.1,24.4,17.2,24.4c-0.4,0.2-0.8,0-0.7,0.6c0.1-0.1,0.2-0.1,0.4-0.1v0c0.1,0,0.2,0,0.2,0c0,0,0,0,0.1,0
	C17.2,24.7,17.2,24.6,17.2,24.4z M17.2,24.8C17.1,24.9,17.1,24.9,17.2,24.8c-0.4,0.2-0.8,0-0.7,0.6c0.1-0.1,0.2-0.1,0.4-0.1v0
	c0.1,0,0.2,0,0.2,0c0,0,0,0,0.1,0C17.2,25.2,17.2,25.1,17.2,24.8z M17.2,25.3C17.1,25.3,17.1,25.4,17.2,25.3c-0.4,0.2-0.8,0-0.7,0.6
	c0.1-0.1,0.2-0.1,0.4-0.1v0c0.1,0,0.2,0,0.2,0c0,0,0,0,0.1,0C17.2,25.7,17.2,25.6,17.2,25.3z M17.2,25.8
	C17.1,25.8,17.1,25.9,17.2,25.8c-0.4,0.2-0.8,0-0.7,0.6c0.1-0.1,0.2-0.1,0.4-0.1v0c0.1,0,0.2,0,0.2,0c0,0,0,0,0.1,0
	C17.2,26.2,17.2,26.1,17.2,25.8z M17.2,26.3C17.1,26.3,17.1,26.3,17.2,26.3c-0.4,0.2-0.8,0-0.7,0.6c0.1-0.1,0.2-0.1,0.4-0.1v0
	C17.1,26.7,17.2,26.7,17.2,26.3z M17.2,26.8C17.1,26.8,17.1,26.8,17.2,26.8c-0.4,0.2-0.8,0-0.7,0.6c0.1-0.1,0.2-0.1,0.4-0.1v0
	C17.1,27.2,17.2,27.2,17.2,26.8z M17.2,27.3C17.1,27.3,17.1,27.3,17.2,27.3c-0.4,0.2-0.8,0-0.7,0.6c0.1-0.1,0.2-0.1,0.4-0.1v0
	C17.1,27.7,17.2,27.7,17.2,27.3z M21.8,12.2c0,0.2-0.1,0.5,0,0.8c0,0.1,0.1,0.2,0.4,0.3C22.2,13,22.6,12.6,21.8,12.2
	C21.9,12.2,21.9,12.2,21.8,12.2L21.8,12.2z M22.5,12.7c0,0.3-0.1,0.5-0.1,0.8c0,0.1,0.1,0.2,0.3,0.4C22.8,13.5,23.2,13.1,22.5,12.7
	C22.5,12.7,22.5,12.7,22.5,12.7L22.5,12.7z M18.1,10.8c0.1,0.2,0.2,0.5,0.3,0.7c0.1,0.1,0.2,0.1,0.5,0.1
	C18.8,11.4,19,10.8,18.1,10.8C18.2,10.8,18.2,10.8,18.1,10.8L18.1,10.8z M18.9,11c0.1,0.2,0.1,0.5,0.3,0.8c0.1,0.1,0.2,0.2,0.5,0.2
	C19.5,11.6,19.8,11,18.9,11C18.9,11,18.9,11,18.9,11L18.9,11z M19.7,11.2c0.1,0.2,0.1,0.5,0.2,0.8c0.1,0.1,0.2,0.2,0.5,0.2
	C20.2,11.8,20.5,11.3,19.7,11.2C19.7,11.2,19.7,11.2,19.7,11.2L19.7,11.2z M20.4,11.5c0.1,0.2,0,0.5,0.1,0.8
	c0.1,0.1,0.2,0.2,0.4,0.3C20.9,12.2,21.2,11.7,20.4,11.5C20.5,11.5,20.5,11.5,20.4,11.5L20.4,11.5z M21.1,11.8
	c0.1,0.2,0,0.5,0.1,0.8c0.1,0.1,0.2,0.2,0.4,0.3C21.6,12.6,21.9,12.1,21.1,11.8C21.2,11.8,21.2,11.8,21.1,11.8L21.1,11.8z
	 M16.3,11.4c0.1,0.1,0.3,0.1,0.5,0c-0.3-0.3-0.2-0.9-1-0.7c0,0,0,0,0,0l0,0C15.9,10.9,16,11.2,16.3,11.4z M17,11.4
	c0.1,0.1,0.2,0.1,0.5,0.1c-0.2-0.3-0.1-0.9-1-0.7c0,0,0,0,0,0l0,0C16.7,10.9,16.8,11.2,17,11.4z M17.7,11.4c0.1,0.1,0.2,0.1,0.5,0.1
	c-0.2-0.3-0.1-0.9-0.9-0.8c0,0,0,0,0,0l0,0C17.5,10.9,17.6,11.2,17.7,11.4z M29.8,11.7c-0.1,0.4-0.5,0.8-0.6,1.2
	c0,0.2,0.1,0.4,0.3,0.8C29.8,13.1,30.7,12.7,29.8,11.7C29.9,11.7,29.9,11.7,29.8,11.7L29.8,11.7z M29,12.9c-0.4-0.4-0.6-0.7-0.6-1
	c-0.5-0.4-0.7-0.7-0.7-1c-0.5-0.3-0.7-0.6-0.8-0.9c-0.5-0.3-0.8-0.6-0.9-0.8c-0.6-0.2-0.8-0.5-1-0.8c-0.6-0.2-0.9-0.4-1-0.7
	c-0.6-0.1-0.9-0.3-1.1-0.6c-0.6-0.1-0.9-0.3-1.1-0.5c-0.6,0-0.9-0.2-1.2-0.4c-0.6,0-1-0.1-1.2-0.3c-0.6,0.1-1,0-1.2-0.2
	c-0.6,0.1-1,0.1-1.2-0.1c-0.6,0.2-0.9,0.2-1.2,0C15.2,6,14.9,6,14.6,5.9c-0.5,0.3-0.9,0.3-1.2,0.2c-0.5,0.3-0.9,0.4-1.2,0.3
	C11.8,6.9,11.4,7,11.1,7c-0.4,0.4-0.8,0.5-1.1,0.5C9.6,8,9.3,8.1,9,8.2C8.6,8.6,8.3,8.8,8,8.9C7.7,9.4,7.4,9.6,7.1,9.7
	c-0.3,0.5-0.6,0.8-0.8,0.9c-0.2,0.6-0.5,0.8-0.8,1c-0.2,0.6-0.4,0.9-0.7,1c-0.1,0.6-0.3,0.9-0.6,1.1c-0.1,0.6-0.3,0.9-0.5,1.1
	c0,0.6-0.2,0.9-0.4,1.2c0,0.6-0.1,1-0.3,1.2c0.1,0.6,0,1-0.2,1.2c0.1,0.6,0.1,1-0.1,1.2c0.2,0.6,0.2,0.9,0,1.2
	c0.2,0.6,0.2,0.9,0.1,1.2c0.3,0.5,0.3,0.9,0.2,1.2c0.3,0.5,0.4,0.9,0.3,1.2c0.4,0.5,0.5,0.8,0.4,1.1c0.4,0.4,0.5,0.8,0.5,1.1
	c0.4,0.4,0.6,0.7,0.6,1c0.5,0.4,0.7,0.7,0.7,1c0.5,0.3,0.7,0.6,0.8,0.9c0.5,0.3,0.8,0.6,0.9,0.8c0.6,0.2,0.8,0.5,1,0.8
	c0.6,0.2,0.9,0.4,1,0.7c0.6,0.1,0.9,0.3,1.1,0.6c0.6,0.1,0.9,0.3,1.1,0.5c0.6,0,0.9,0.2,1.2,0.4c0.6,0,1,0.1,1.2,0.3
	c0.6-0.1,1,0,1.2,0.2c0.6-0.1,1-0.1,1.2,0.1c0.6-0.2,0.9-0.2,1.2,0c0.6-0.2,0.9-0.2,1.2-0.1c0.5-0.3,0.9-0.3,1.2-0.2
	c0.5-0.3,0.9-0.4,1.2-0.3c0.5-0.4,0.8-0.5,1.1-0.4c0.4-0.4,0.8-0.5,1.1-0.5c0.4-0.4,0.7-0.6,1-0.6c0.4-0.5,0.7-0.7,1-0.7
	c0.3-0.5,0.6-0.7,0.9-0.8c0.3-0.5,0.6-0.8,0.8-0.9c0.2-0.6,0.5-0.8,0.8-1c0.2-0.6,0.4-0.9,0.7-1c0.1-0.6,0.3-0.9,0.6-1.1
	c0.1-0.6,0.3-0.9,0.5-1.1c0-0.6,0.2-0.9,0.4-1.2c0-0.6,0.1-1,0.3-1.2c-0.1-0.6,0-1,0.2-1.2c-0.1-0.6-0.1-1,0.1-1.2
	c-0.2-0.6-0.2-0.9,0-1.2c-0.2-0.6-0.2-0.9-0.1-1.2c-0.3-0.5-0.3-0.9-0.2-1.2c-0.3-0.5-0.4-0.9-0.3-1.2c-0.4-0.5-0.5-0.8-0.4-1.1
	C29.1,13.6,29,13.2,29,12.9z M29.8,14c0,0.2,0,0.4,0.3,0.8c0.3-0.6,1.2-0.9,0.4-2c0,0,0,0,0,0l0,0C30.3,13.2,30,13.6,29.8,14z
	 M27.3,8.6c0,0.4-0.2,0.8-0.2,1.3c0,0.2,0.2,0.4,0.5,0.7C27.7,10,28.5,9.4,27.3,8.6C27.3,8.6,27.3,8.6,27.3,8.6L27.3,8.6z M28.2,9.5
	c0,0.4-0.3,0.8-0.4,1.3c0,0.2,0.1,0.4,0.5,0.7C28.5,10.9,29.3,10.4,28.2,9.5C28.3,9.6,28.3,9.6,28.2,9.5L28.2,9.5z M29.1,10.6
	c-0.1,0.4-0.4,0.8-0.5,1.3c0,0.2,0.1,0.4,0.4,0.8C29.2,12,30.1,11.6,29.1,10.6C29.1,10.6,29.1,10.6,29.1,10.6L29.1,10.6z M24.1,6.2
	c0.1,0.4,0,0.9,0.1,1.4c0.1,0.2,0.3,0.3,0.7,0.5C24.8,7.5,25.4,6.7,24.1,6.2C24.1,6.2,24.1,6.2,24.1,6.2L24.1,6.2z M25.2,6.9
	c0.1,0.4-0.1,0.9,0,1.4c0.1,0.2,0.2,0.4,0.6,0.6C25.8,8.2,26.5,7.5,25.2,6.9C25.3,6.9,25.3,6.9,25.2,6.9L25.2,6.9z M26.3,7.7
	c0,0.4-0.2,0.9-0.1,1.4c0.1,0.2,0.2,0.4,0.6,0.6C26.8,9.1,27.5,8.4,26.3,7.7C26.3,7.7,26.3,7.7,26.3,7.7L26.3,7.7z M19,4.6
	c0.2,0.3,0.3,0.8,0.6,1.2C19.8,5.9,20,6,20.4,6C20.1,5.5,20.4,4.5,19,4.6C19.1,4.6,19.1,4.6,19,4.6L19,4.6z M20.3,4.8
	c0.2,0.4,0.2,0.9,0.5,1.3c0.1,0.2,0.4,0.3,0.8,0.3C21.3,5.8,21.7,4.9,20.3,4.8C20.4,4.8,20.4,4.8,20.3,4.8L20.3,4.8z M21.6,5.2
	c0.2,0.4,0.1,0.9,0.3,1.3c0.1,0.2,0.3,0.3,0.8,0.4C22.5,6.3,23,5.4,21.6,5.2C21.7,5.2,21.7,5.2,21.6,5.2L21.6,5.2z M22.9,5.7
	C23,6.1,22.9,6.5,23.1,7c0.1,0.2,0.3,0.3,0.7,0.5C23.7,6.8,24.2,6,22.9,5.7C22.9,5.7,22.9,5.7,22.9,5.7L22.9,5.7z M30.2,15.2
	c-0.1,0.2,0,0.4,0.2,0.8c0.3-0.5,1.3-0.7,0.6-1.9c0,0,0,0,0,0l0,0C30.8,14.4,30.4,14.7,30.2,15.2z M30.6,16.4
	c-0.1,0.2,0,0.4,0.1,0.8c0.4-0.5,1.4-0.6,0.8-1.9c0,0,0,0,0,0l0,0C31.2,15.7,30.8,15.9,30.6,16.4z M30.8,17.6
	c-0.1,0.2-0.1,0.4,0,0.9c0.4-0.5,1.4-0.5,0.9-1.8c0,0,0,0,0,0l0,0C31.5,17,31.1,17.2,30.8,17.6z M30.9,18.8c-0.1,0.2-0.1,0.4,0,0.9
	c0.4-0.4,1.5-0.4,1.1-1.7c0,0,0,0,0,0l0,0C31.7,18.3,31.3,18.4,30.9,18.8z M27.4,29.1c-0.2,0.1-0.4,0.2-0.6,0.6c0.6,0,1.3,0.8,2-0.4
	c0,0,0,0,0,0l0,0C28.4,29.2,27.9,29,27.4,29.1z M28.2,28.1c-0.2,0.1-0.4,0.2-0.6,0.6c0.6-0.1,1.4,0.6,1.9-0.6c0,0,0,0,0,0l0,0
	C29.1,28.2,28.7,28,28.2,28.1z M26.6,30c-0.2,0-0.4,0.2-0.7,0.5c0.6,0.1,1.2,0.9,2-0.3c0,0,0,0,0,0l0,0C27.5,30.2,27.1,29.9,26.6,30
	z M25.6,30.8c-0.2,0-0.4,0.1-0.7,0.5c0.6,0.1,1.1,1,2-0.1c0,0,0,0,0,0l0,0C26.5,31.1,26.1,30.8,25.6,30.8z M24.6,31.5
	c-0.2,0-0.4,0.1-0.8,0.4c0.6,0.2,1.1,1.1,2,0.1c0,0,0,0,0,0l0,0C25.5,31.9,25.1,31.6,24.6,31.5z M23.6,32.1c-0.2,0-0.4,0.1-0.8,0.3
	c0.6,0.2,1,1.2,2,0.3c0,0,0,0,0,0l0,0C24.4,32.6,24.1,32.3,23.6,32.1z M22.5,32.7c-0.2,0-0.4,0-0.8,0.3c0.6,0.3,0.9,1.2,2,0.4
	c0,0,0,0,0,0l0,0C23.2,33.2,22.9,32.8,22.5,32.7z M32.1,19.3c-0.3,0.3-0.8,0.4-1.1,0.8c-0.1,0.2-0.2,0.4-0.1,0.8
	C31.3,20.5,32.4,20.6,32.1,19.3C32.1,19.3,32.1,19.3,32.1,19.3L32.1,19.3z M32.1,20.6c-0.3,0.3-0.8,0.4-1.2,0.7
	c-0.1,0.2-0.2,0.4-0.2,0.8C31.2,21.7,32.2,22,32.1,20.6C32.1,20.6,32.1,20.6,32.1,20.6L32.1,20.6z M31.9,21.9
	c-0.3,0.2-0.8,0.3-1.2,0.6c-0.1,0.1-0.2,0.4-0.2,0.8C31,23,32,23.3,31.9,21.9C31.9,22,31.9,22,31.9,21.9L31.9,21.9z M31.7,23.2
	c-0.4,0.2-0.9,0.2-1.3,0.5c-0.2,0.1-0.3,0.4-0.3,0.8C30.6,24.2,31.6,24.6,31.7,23.2C31.7,23.3,31.7,23.3,31.7,23.2L31.7,23.2z
	 M31.3,24.5c-0.4,0.2-0.9,0.1-1.3,0.3c-0.2,0.1-0.3,0.3-0.4,0.8C30.2,25.4,31.1,25.9,31.3,24.5C31.3,24.6,31.3,24.6,31.3,24.5
	L31.3,24.5z M30.8,25.8c-0.4,0.1-0.9,0.1-1.3,0.2c-0.2,0.1-0.3,0.3-0.5,0.7C29.6,26.6,30.5,27.1,30.8,25.8
	C30.8,25.8,30.8,25.8,30.8,25.8L30.8,25.8z M30.2,27c-0.4,0.1-0.9,0-1.4,0.1c-0.2,0.1-0.3,0.3-0.5,0.7C29,27.7,29.8,28.3,30.2,27
	C30.2,27,30.2,27,30.2,27L30.2,27z M21.3,33.1c-0.2-0.1-0.4,0-0.8,0.2c0.5,0.3,0.7,1.3,1.9,0.6c0,0,0,0,0,0l0,0
	C22,33.7,21.8,33.3,21.3,33.1z M20.1,33.5c-0.2-0.1-0.4,0-0.8,0.1c0.5,0.4,0.6,1.4,1.9,0.8c0,0,0,0,0,0l0,0
	C20.8,34.1,20.6,33.7,20.1,33.5z M18.9,33.7c-0.2-0.1-0.4-0.1-0.9,0c0.5,0.4,0.5,1.4,1.8,0.9c0,0,0,0,0,0l0,0
	C19.5,34.4,19.3,34,18.9,33.7z M17.7,33.8c-0.2-0.1-0.4-0.1-0.9,0c0.4,0.4,0.4,1.5,1.7,1.1c0,0,0,0,0,0l0,0
	C18.2,34.6,18.1,34.1,17.7,33.8z M16.4,33.9c-0.2-0.1-0.4-0.2-0.8-0.1c0.4,0.5,0.2,1.5,1.6,1.2c0,0,0,0,0,0l0,0
	C16.9,34.7,16.8,34.2,16.4,33.9z M15.2,33.8c-0.2-0.1-0.4-0.2-0.8-0.2c0.4,0.5,0.1,1.5,1.5,1.4c0,0,0,0,0,0l0,0
	C15.6,34.6,15.5,34.1,15.2,33.8z M14,33.6c-0.1-0.1-0.4-0.2-0.8-0.2c0.3,0.5,0,1.5,1.4,1.5c0,0,0,0,0,0l0,0
	C14.3,34.5,14.3,34,14,33.6z M12.8,33.3C12.7,33.1,12.4,33,12,33c0.3,0.6-0.1,1.5,1.2,1.6c0,0,0,0,0,0l0,0
	C13,34.2,13,33.7,12.8,33.3z M11.6,32.9c-0.1-0.2-0.3-0.3-0.8-0.4c0.2,0.6-0.3,1.5,1.1,1.7c0,0,0,0,0,0l0,0
	C11.8,33.8,11.8,33.3,11.6,32.9z M10.5,32.4c-0.1-0.2-0.3-0.3-0.7-0.5c0.2,0.6-0.4,1.5,0.9,1.8c0,0,0,0,0,0l0,0
	C10.6,33.3,10.7,32.8,10.5,32.4z M9.4,31.8c-0.1-0.2-0.3-0.3-0.7-0.5c0.1,0.6-0.5,1.4,0.8,1.9c0,0,0,0,0,0l0,0
	C9.4,32.7,9.5,32.3,9.4,31.8z M8.4,31.1c-0.1-0.2-0.2-0.4-0.6-0.6c0.1,0.6-0.6,1.4,0.6,1.9c0,0,0,0,0,0l0,0
	C8.3,32,8.5,31.6,8.4,31.1z M7.4,30.3c-0.1-0.2-0.2-0.4-0.6-0.6c0,0.6-0.8,1.3,0.4,2c0,0,0,0,0,0l0,0C7.3,31.2,7.5,30.8,7.4,30.3z
	 M6.5,29.5c0-0.2-0.2-0.4-0.5-0.7c-0.1,0.6-0.9,1.2,0.3,2c0,0,0,0,0,0l0,0C6.3,30.4,6.5,29.9,6.5,29.5z M5.7,28.5
	c0-0.2-0.1-0.4-0.5-0.7c-0.1,0.6-1,1.1,0.1,2c0,0,0,0,0,0l0,0C5.4,29.4,5.7,29,5.7,28.5z M5,27.5c0-0.2-0.1-0.4-0.4-0.8
	c-0.2,0.6-1.1,1.1-0.1,2c0,0,0,0,0,0l0,0C4.6,28.4,4.9,28,5,27.5z M4.3,26.5c0-0.2-0.1-0.4-0.3-0.8c-0.2,0.6-1.2,1-0.3,2
	c0,0,0,0,0,0l0,0C3.9,27.3,4.2,26.9,4.3,26.5z M3.8,25.4c0-0.2,0-0.4-0.3-0.8c-0.3,0.6-1.2,0.9-0.4,2c0,0,0,0,0,0l0,0
	C3.3,26.1,3.6,25.8,3.8,25.4z M3.4,24.2c0.1-0.2,0-0.4-0.2-0.8c-0.3,0.5-1.3,0.7-0.6,1.9c0,0,0,0,0,0l0,0
	C2.8,24.9,3.2,24.6,3.4,24.2z M3,23c0.1-0.2,0-0.4-0.1-0.8c-0.4,0.5-1.4,0.6-0.8,1.9c0,0,0,0,0,0l0,0C2.4,23.7,2.8,23.4,3,23z
	 M2.8,21.8c0.1-0.2,0.1-0.4,0-0.9c-0.4,0.5-1.4,0.5-0.9,1.8c0,0,0,0,0,0l0,0C2.1,22.4,2.5,22.2,2.8,21.8z M2.7,20.6
	c0.1-0.2,0.1-0.4,0-0.9c-0.4,0.4-1.5,0.4-1.1,1.7c0,0,0,0,0,0l0,0C1.9,21.1,2.3,20.9,2.7,20.6z M2.6,19.3c0.1-0.2,0.2-0.4,0.1-0.8
	c-0.5,0.4-1.5,0.2-1.2,1.6c0,0,0,0,0,0l0,0C1.8,19.8,2.3,19.7,2.6,19.3z M2.7,18.1c0.1-0.2,0.2-0.4,0.2-0.8
	c-0.5,0.4-1.5,0.1-1.4,1.5c0,0,0,0,0,0l0,0C1.9,18.5,2.3,18.4,2.7,18.1z M2.9,16.9c0.1-0.1,0.2-0.4,0.2-0.8c-0.5,0.3-1.5,0-1.5,1.4
	c0,0,0,0,0,0l0,0C2,17.2,2.5,17.2,2.9,16.9z M3.2,15.7c0.2-0.1,0.3-0.4,0.3-0.8C3,15.2,2,14.7,1.9,16.1c0,0,0,0,0,0l0,0
	C2.3,15.9,2.8,15.9,3.2,15.7z M3.6,14.5c0.2-0.1,0.3-0.3,0.4-0.8c-0.6,0.2-1.5-0.3-1.7,1.1c0,0,0,0,0,0l0,0
	C2.7,14.7,3.2,14.7,3.6,14.5z M4.1,13.4c0.2-0.1,0.3-0.3,0.5-0.7c-0.6,0.2-1.5-0.4-1.8,0.9c0,0,0,0,0,0l0,0
	C3.2,13.5,3.6,13.6,4.1,13.4z M4.7,12.3c0.2-0.1,0.3-0.3,0.5-0.7c-0.6,0.1-1.4-0.5-1.9,0.8c0,0,0,0,0,0l0,0
	C3.8,12.3,4.2,12.4,4.7,12.3z M5.4,11.3C5.6,11.2,5.8,11,6,10.6C5.3,10.7,4.6,10,4,11.2c0,0,0,0,0,0l0,0C4.5,11.2,4.9,11.4,5.4,11.3
	z M6.2,10.3c0.2-0.1,0.4-0.2,0.6-0.6c-0.6,0-1.3-0.8-2,0.4c0,0,0,0,0,0l0,0C5.2,10.1,5.7,10.4,6.2,10.3z M7,9.4
	c0.2,0,0.4-0.2,0.7-0.5C7.1,8.8,6.5,8,5.7,9.1c0,0,0,0,0,0l0,0C6.1,9.2,6.5,9.4,7,9.4z M11.1,6.7c0.2,0,0.4,0,0.8-0.3
	c-0.6-0.3-0.9-1.2-2-0.4c0,0,0,0,0,0l0,0C10.4,6.2,10.7,6.5,11.1,6.7z M10,7.2c0.2,0,0.4-0.1,0.8-0.3c-0.6-0.2-1-1.2-2-0.3
	c0,0,0,0,0,0l0,0C9.2,6.8,9.5,7.1,10,7.2z M6.7,8.2c0.4,0,0.8,0.3,1.3,0.4c0.2,0,0.4-0.1,0.7-0.5C8.1,8,7.5,7.2,6.7,8.2
	C6.7,8.2,6.7,8.2,6.7,8.2L6.7,8.2z M7.7,7.4C8.1,7.5,8.5,7.8,9,7.9c0.2,0,0.4-0.1,0.8-0.4C9.1,7.3,8.7,6.4,7.7,7.4
	C7.7,7.4,7.7,7.4,7.7,7.4L7.7,7.4z M11.2,5.5c0.4,0.2,0.7,0.6,1.1,0.8c0.2,0.1,0.4,0,0.8-0.2C12.6,5.7,12.4,4.7,11.2,5.5
	C11.2,5.4,11.2,5.4,11.2,5.5L11.2,5.5z M18.4,5.6c0.2,0.1,0.4,0.2,0.8,0.2c-0.4-0.5-0.1-1.5-1.5-1.4c0,0,0,0,0,0l0,0
	C18,4.7,18.1,5.2,18.4,5.6z M17.2,5.5c0.2,0.1,0.4,0.2,0.8,0.1c-0.4-0.5-0.2-1.5-1.6-1.2c0,0,0,0,0,0l0,0
	C16.7,4.7,16.8,5.2,17.2,5.5z M15.9,5.5c0.2,0.1,0.4,0.1,0.9,0c-0.4-0.4-0.4-1.5-1.7-1.1c0,0,0,0,0,0l0,0
	C15.4,4.8,15.5,5.2,15.9,5.5z M14.7,5.7c0.2,0.1,0.4,0.1,0.9,0c-0.5-0.4-0.5-1.4-1.8-0.9c0,0,0,0,0,0l0,0
	C14.1,4.9,14.3,5.4,14.7,5.7z M13.5,5.9c0.2,0.1,0.4,0,0.8-0.1c-0.5-0.4-0.6-1.4-1.9-0.8c0,0,0,0,0,0l0,0C12.8,5.2,13,5.7,13.5,5.9z
	 M17.9,20.2l1.7-1.3h-2.1l-0.7-2l-0.7,2H14l1.7,1.2l-0.7,2l1.7-1.2l1.7,1.2L17.9,20.2z"/>
<path class="st0" d="M47.7,18.7c0,0.3,0,0.6,0,0.9l-0.5-0.2l-0.1-0.2l0-0.2l0-0.2l0-0.3C47.3,18.5,47.6,18.6,47.7,18.7 M37.4,23
	c0-0.6,0-1.3,0-1.9c0-1.2,0-2.4,0.1-3.6c0-0.4,0-0.9,0-1.3c-0.1-1.4-0.3-3.1,1-3.6c0.5,0.3,0.4,1.2,0.9,1.9c1.1,0.3,0.5,1.7,0.5,2.7
	c0.2-0.4,0.3-0.9,0.4-1.2c0.1-1.7,0-2.3,1-3.4c0.6-0.4,1.5-0.9,2-1.3c3.1-1.7,3.1-1.7,3.3-1.9c1-1.6,0.8-3.8,2-5.1
	C49,4,49.4,4.2,49.4,4.9c0.6,0,1.7,0.8,2.2,1.5c-0.1,1-1.7,2-2.5,2.3c-0.9,0.8-0.5,1.5-0.3,2.4c0,0.1,0,0.1,0,0.2c0,0,0,0.1-0.1,0.1
	c-0.5,0.7-1.2,1.7-1.4,2.5c0.7-0.5,1.4-1.2,2.3-1.3c0.9,0.7-0.7,1.6-1,2.3c0.1,0.3,0.6,0.3,0.8,1.1c-0.6,2.5-0.3,5.1,0.1,7.8
	c-0.1,0.6-1,0.7-1.4,0.7c-0.5-0.4-1.2-1.6-1.1-2.2c0.6,0.2,0.6,0.2,0.8,0.2c0.2-0.5,0.1-1.4-0.1-1.7c-0.6-0.2-0.7-0.2-0.9-0.5
	c-0.1,0-0.1,0-0.2,0c-0.1,0.4-0.2,0.9-0.4,1.7c-0.1,0.5,0,3.1-1.2,3c-0.5-0.5-0.5-0.4-0.5-1c0.4-1.9,0.8-3.6,1.4-5.4
	c0.1-0.9,0.5-1.5,0.7-2.3c-0.7,0-1.3,0.8-1.8-0.1c0-0.1,0-0.2,0-0.3c1-1.1,1.1-2.1,0.8-3.5c0-0.1,0.1-0.2,0.1-0.3
	c0.2-0.4,0.6-0.9,0.4-1.3c-0.7,0-1.4,1-1.9,1.4c-1,0.8-1.1,0.9-1.6,1.2c-1.5,0.4-1.5,0.4-1.7,1.8c0.1,2.1-0.3,4.5-1.1,6.6
	c-0.1,0.7-0.2,1.4-0.3,2.1c0,0.7,0.2,1.9-0.6,2.2c-0.6-0.3-1-0.6-1.3-0.9C37.6,24.2,37.6,24.2,37.4,23z M47.6,17.3
	c-0.2-0.1-0.1-0.4,0-0.7c0.1,0,0.3,0.1,0.3,0.1c0,0.1-0.1,0.6-0.1,0.7C47.8,17.4,47.6,17.2,47.6,17.3z M38.8,9.3
	c-0.1-0.1-0.2-0.1-0.3-0.2c-0.6-0.5-0.9-1.2-0.8-1.9c1-0.2,2.6,0.1,2.4,1.4c0,0.3-0.2,0.3-0.4,0.4c-0.2,0.1-0.4,0.2-0.6,0.2
	C39,9.3,38.9,9.2,38.8,9.3z M49.2,6.8c0-0.4,0-0.8,0-1.2c0.4,0,0.5,0.3,0.5,0.8C49.5,6.7,49.4,6.7,49.2,6.8z"/>
<path class="st0" d="M96.6,13.5c-0.5-0.4,0.5-1.2,0.7-1.5c0.5-0.1,2.8-1.2,3-0.5c-0.5,0.7-0.9,1.5-1.8,1.6
	C96.9,12.4,97.5,13.4,96.6,13.5 M92.2,14.2c0-0.4,0-0.7-0.1-1c-0.4-0.6-1.8-2-1-2.5c0.1,0.1,0.2,0.1,0.3,0.2c0.3,0.6,1.5,1.4,2.1,2
	C93.6,13.8,93,14,92.2,14.2z M91.7,17.4C90.6,16.9,90,16,90,15c0.8,0,0.9,0.9,2.2,0.3c0.7-0.7,1.5-1.1,2.3-1.8c0-0.2,0-0.4,0-0.6
	c0.3,0,0.5-0.1,0.8-0.1c0.7-0.7,1.7-2.4,1.6-3.2c-0.6,0-1.2,0.4-1.7,0.2c0-0.7,0.1-0.6,0.6-1c1-1.4,2.9-2.5,2.7-4.3
	c0.1-0.9,1-0.4,1.7,0c0.6,1-0.2,1.4-1.1,2.2c-0.5,0.6-1,1.3-1.6,1.8c0,0.1,0,0.1,0,0.2c0.9,0.2,1.3-0.1,1.3,0.9
	c-0.3,0.4-0.7,0.8-0.6,1.4c1.3-0.4,2.4-1.1,3.8-0.1c0.3,1.5-1.5,2-2.2,3.1c-0.1,0.1-0.3,0.2-0.4,0.3c-1.6,0.1-2.8,1.5-4.2,1.8
	c0-0.1,0-0.1,0-0.2c0.4-0.3,1.5-0.9,1.6-1.5c-1-0.5-0.9-0.4-1.7,0.2c-1.2,0.4-1.7,0.6-2.5,1.4c-0.2,0.4-0.2,1-0.4,1.3
	C91.9,17.4,91.8,17.4,91.7,17.4z M96.1,18.6c0-0.4,1.2-1.4,1.6-1.7c0.1,0,0.3,0,0.4,0C98.2,17.5,96.7,18.2,96.1,18.6z M94.2,19.6
	c-0.5,0-1.1,0.1-1.6,0.1c-0.2,0-0.2,0-0.4-0.1c0-0.3,0-0.3,0.2-0.5c1.4-0.7,2.9-1.6,4.4-2.2c0.7-0.4,1.4-0.8,2.1-1.1
	c0.5,0,1.6-0.2,1.5,0.7c-0.5,0.2-1.4,1.3-1.7,1.8c-1.3,0.7-2.5,1.5-3.7,2.4c-0.1,0-0.2,0-0.3,0c0-0.5,0.8-1.3,1.3-1.7
	c0.1-0.1,0-0.2-0.1-0.1C95.4,19,95,19.6,94.2,19.6z M96.1,26.5c-0.7-0.2-4-1.1-3.5-1.9c0.7,0,1.9,0.7,3.1,0.6c0.4-0.5,0.2-1.7,0-2.1
	c-1,0-1.4,0.7-2.2,0.9c-0.9-0.1-2.3-0.1-2.2-1.1c1-0.6,2.4-1,3.6-1.3c0.4-0.3-0.2-0.6,0.6-0.5c0.4,0.4,1.8,0,2.6-0.1
	c0.3,0.1,0.6,0.2,1.1,0.5c0,1.3-3.1,0.9-1.8,2.6C97.4,24.8,97.2,26.2,96.1,26.5z"/>
<path class="st0" d="M63.5,13.6c0-1.1,1.1-1.4,1.9-1.9c0.1,0,0.1,0,0.2,0c0,0.1,0,0.1,0,0.2c-0.2,0.2-0.2,0.2-0.4,0.3
	C64.8,13,64.2,13.2,63.5,13.6 M63.3,15.4c0-0.7,0.2-0.9,0.8-1.1C64.2,14.7,63.6,15.3,63.3,15.4z M63.3,21c0-0.9-0.2-1.6,0.6-2
	c0.7,0,0.7-0.1,1.1,0.7C64.8,20.3,63.8,20.8,63.3,21z M63.1,24.1c0,0.5,0,1.1,0.1,1.7c0,0.2-0.2,0.4-0.4,0.5c-0.9-0.8-0.9-2.3-1-3.3
	c-0.9-0.1-0.9-0.1-1-0.8c0.5-0.1,0.5-0.1,1-0.3c0.2-0.5,0.1-2-0.1-2.3c-0.8,0-1.8,1.2-2.5,1.6c-0.8,0.9-1.1,0.8-2,0.4
	c0-0.1,0-0.1,0.1-0.2c0.9-0.3,4.1-2.3,4.3-3.4c-0.2,0-0.2,0-0.4-0.2c0-0.1,0-0.2,0-0.2c0.2-0.1,0.3-0.3,0.5-0.4
	c0.1-0.3,0.3-1.3,0.1-1.5c-1,0-1.4,1.9-2.5,1.5c-0.6,0.4-1.6,1.2-2.3,0.9c0-0.2,0-0.3,0-0.4c0.6-0.3,1-0.6,1.8-1
	c0.4-0.7,0-1.4,0.7-1.5c0.1,0.1,0.2,0.2,0.3,0.3c1.9,0,1.9-2.9,2-4.1c0.4-0.7,1.3-0.6,1.4-1.6c-1.5,0.2-1.4,1.7-2.5,1.9
	c-0.2-0.1-0.3-0.1-0.5-0.2c-1.3,0-1.9,1.4-3.2,0.4c0-0.1,0-0.1,0-0.2c1.8-0.9,1.8-0.9,3-1.4c0.8-0.7,0.3-2.2,0.4-3.1
	c0.9,0,0.9,1.5,1.5,2c0.8-0.3,1.6-0.7,2.4-1c0.9-1.1,1.8-2.4,2.8-3.6c0.7-0.1,0.8-0.2,1.1,0.7c-0.1,0.5-0.7,0.8-0.8,1.2
	c0.4-0.2,0.7-0.3,0.9-0.7c0.6-0.2,1.6,0.5,0.7,1.3c-1.3,0.5-2.8,1.1-3.8,1.9c-0.4,0.5-0.8,0.9-1.2,1.4c-0.6,0.4-0.5,0.3-0.7,1
	c0.9-0.1,3.5-2.6,3.9-0.3c0.6,0.6,0.2,0.8-0.4,1.5c-1.2,1-1.9,2.7-3.2,3.6c0,0.1,0,0.1,0,0.2c0.5,0,2.5-1.2,3.1-1.5
	c0.4,0.1,0.6,0.3,0.6,0.9c-0.8,0.6-1.5,1.1-2,1.9c0,0.7,0.6,0.7,1.3,1.2c0.6,0.9-2.6,2.4-3.4,3C63.2,22.3,63.2,22.3,63.1,24.1z"/>
<path class="st0" d="M82.6,23.6c-0.2-0.1-0.4-0.1-0.7-0.1c-0.8-0.7-1.6-2.4-1.9-3.3c0-0.3,0-0.5,0-0.8c0.2,0,0.2-0.1,0.5,0.1
	c0.3,0.7,2,2,2.9,2.4c0.5,0,1,0.1,1.5,0.1C84.9,22.6,83.2,23.5,82.6,23.6 M73.2,24.2c0-0.1,0-0.1-0.1-0.2c0-0.1,0.1-0.1,0.1-0.2
	c2.4-0.9,4.3-3.5,4.7-6.1c0-0.1,0-0.1,0-0.2C77,17.7,76.3,18,75.5,18c-1.5-0.9-0.6-1.1,0.6-1.3c0.9-0.4,1.7-0.9,2.5-1.6
	c0.6-2,1.3-4,1.5-6C80.5,8.7,80,8.3,80.7,8c0.3,0.2,0.5,0.2,0.7,0.7c-0.2,1.5-0.4,3.2-0.8,4.8c0,0.1,0,0.2,0,0.4
	c1.3,0,0.9-1.4,1.4-1.9c0.4,0.3,0.4,0.3,0.9,0.6c0.9,1.2-2.6,3.5-3.2,4c-0.3,0.8-0.6,1.7-0.9,2.5C77.2,21.6,76,23.6,73.2,24.2z"/>
<path class="st0" d="M98.2,30.5h1.6v0.3l-0.4,0l-0.1,0.1l0.9,2.3l0.9-2.3l-0.1-0.1l-0.4,0v-0.3h1.3v0.3l-0.4,0.1l-1.5,3.6
	c-0.2,0.4-0.4,0.8-0.6,1c-0.2,0.2-0.4,0.3-0.6,0.3c-0.2,0-0.3,0-0.4-0.1c-0.1-0.1-0.1-0.2-0.1-0.3c0-0.1,0-0.1,0-0.2
	c0-0.1,0.1-0.1,0.1-0.2l0.7,0.3c0.1-0.1,0.2-0.3,0.3-0.5c0.1-0.2,0.2-0.4,0.3-0.7l-1.2-3.2l-0.5,0 M96.3,30.9h-0.5v-0.2l0.5-0.2
	l0.3-0.7H97v0.8h1.1v0.3H97v2c0,0.3,0,0.5,0.1,0.6c0.1,0.1,0.3,0.2,0.5,0.2c0.1,0,0.2,0,0.2,0c0.1,0,0.2,0,0.3,0v0.3
	C97.9,34,97.8,34,97.6,34c-0.2,0-0.3,0-0.5,0c-0.3,0-0.5-0.1-0.6-0.2c-0.1-0.1-0.2-0.3-0.2-0.6V30.9z M94.8,28.8
	c0.1,0,0.2,0,0.3,0.1c0.1,0.1,0.1,0.2,0.1,0.3c0,0.1,0,0.2-0.1,0.3c-0.1,0.1-0.2,0.1-0.3,0.1c-0.1,0-0.2,0-0.3-0.1
	c-0.1-0.1-0.1-0.2-0.1-0.3c0-0.1,0-0.2,0.1-0.3C94.5,28.8,94.6,28.8,94.8,28.8z M94.7,30.4H95v3.2l0.1,0.1l0.4,0V34h-1.7v-0.3l0.4,0
	l0.1-0.1v-2.7h-0.5v-0.2L94.7,30.4z M93.2,30.6v0.8h-0.4l-0.1-0.5c-0.1-0.1-0.2-0.1-0.3-0.1c-0.1,0-0.2,0-0.3,0
	c-0.2,0-0.3,0-0.5,0.1c-0.1,0.1-0.2,0.2-0.2,0.4c0,0.1,0,0.3,0.1,0.4c0.1,0.1,0.3,0.2,0.5,0.3c0,0,0.1,0,0.2,0.1
	c0.3,0.1,0.5,0.2,0.6,0.3c0.1,0.1,0.2,0.2,0.2,0.3c0,0.1,0.1,0.2,0.1,0.4c0,0.3-0.1,0.6-0.4,0.8c-0.2,0.2-0.6,0.3-1,0.3
	c-0.2,0-0.3,0-0.5,0c-0.2,0-0.3-0.1-0.5-0.1v-1h0.4l0.1,0.6c0.1,0.1,0.2,0.1,0.3,0.1c0.1,0,0.2,0,0.3,0c0.2,0,0.4-0.1,0.5-0.2
	c0.1-0.1,0.2-0.3,0.2-0.4c0-0.1,0-0.3-0.1-0.4c-0.1-0.1-0.3-0.2-0.6-0.4c-0.4-0.2-0.6-0.3-0.8-0.5c-0.1-0.1-0.2-0.3-0.2-0.5
	c0-0.3,0.1-0.6,0.3-0.8c0.2-0.2,0.6-0.3,1-0.3c0.2,0,0.3,0,0.5,0C93,30.5,93.1,30.5,93.2,30.6z M88,34v-0.3l0.4,0l0.1-0.1v-2.7H88
	v-0.2l0.9-0.3h0.3v0.7c0.1-0.1,0.2-0.2,0.4-0.4c0.1-0.1,0.3-0.2,0.4-0.4c0,0,0,0,0.1,0c0,0,0.1,0,0.1,0c0.1,0,0.1,0,0.2,0
	c0.1,0,0.1,0,0.2,0.1v0.6h-0.2c0-0.1-0.1-0.1-0.2-0.1c-0.1,0-0.1,0-0.2,0c-0.1,0-0.2,0-0.4,0.1c-0.1,0.1-0.3,0.2-0.4,0.4v2.1
	l0.1,0.1l0.5,0V34H88z M87.5,33.3v0.4c-0.2,0.1-0.4,0.3-0.7,0.3c-0.2,0.1-0.5,0.1-0.7,0.1c-0.5,0-0.9-0.2-1.2-0.5
	c-0.3-0.3-0.5-0.8-0.5-1.3c0-0.6,0.2-1,0.5-1.4c0.3-0.4,0.7-0.5,1.2-0.5c0.4,0,0.7,0.1,1,0.4c0.2,0.3,0.4,0.6,0.4,1.1
	c0,0.1,0,0.1,0,0.1c0,0,0,0.1,0,0.1h-2.4v0.1c0,0.5,0.1,0.8,0.3,1.1c0.2,0.3,0.5,0.4,0.9,0.4c0.2,0,0.4,0,0.5-0.1
	C87.1,33.5,87.3,33.4,87.5,33.3z M86.8,31.8v-0.1c0-0.3-0.1-0.5-0.2-0.7c-0.1-0.2-0.3-0.2-0.6-0.2c-0.2,0-0.5,0.1-0.6,0.3
	c-0.2,0.2-0.3,0.4-0.3,0.7H86.8z M37.4,29.1h4.2v1.1h-0.4l-0.1-0.7L41,29.4h-1.1v4.2l0.1,0.1l0.5,0V34h-1.9v-0.3l0.5,0l0.1-0.1v-4.2
	H38l-0.1,0.1l-0.1,0.7h-0.4V29.1z M44.3,30.6v0.8h-0.4l-0.1-0.5c-0.1-0.1-0.2-0.1-0.3-0.1c-0.1,0-0.2,0-0.3,0c-0.2,0-0.3,0-0.5,0.1
	c-0.1,0.1-0.2,0.2-0.2,0.4c0,0.1,0,0.3,0.1,0.4c0.1,0.1,0.3,0.2,0.5,0.3c0,0,0.1,0,0.2,0.1c0.3,0.1,0.5,0.2,0.6,0.3
	c0.1,0.1,0.2,0.2,0.2,0.3c0,0.1,0.1,0.2,0.1,0.4c0,0.3-0.1,0.6-0.4,0.8c-0.2,0.2-0.6,0.3-1,0.3c-0.2,0-0.3,0-0.5,0
	c-0.2,0-0.3-0.1-0.5-0.1v-1h0.4l0.1,0.6c0.1,0.1,0.2,0.1,0.3,0.1c0.1,0,0.2,0,0.3,0c0.2,0,0.4-0.1,0.5-0.2c0.1-0.1,0.2-0.3,0.2-0.4
	c0-0.1,0-0.3-0.1-0.4c-0.1-0.1-0.3-0.2-0.6-0.4c-0.4-0.2-0.6-0.3-0.8-0.5c-0.1-0.1-0.2-0.3-0.2-0.5c0-0.3,0.1-0.6,0.3-0.8
	c0.2-0.2,0.6-0.3,1-0.3c0.2,0,0.3,0,0.5,0C44,30.5,44.1,30.5,44.3,30.6z M45.8,30.4h0.3v3.2l0.1,0.1l0.4,0V34h-1.7v-0.3l0.4,0
	l0.1-0.1v-2.7h-0.5v-0.2L45.8,30.4z M45.8,28.8c0.1,0,0.2,0,0.3,0.1c0.1,0.1,0.1,0.2,0.1,0.3c0,0.1,0,0.2-0.1,0.3
	c-0.1,0.1-0.2,0.1-0.3,0.1c-0.1,0-0.2,0-0.3-0.1c-0.1-0.1-0.1-0.2-0.1-0.3c0-0.1,0-0.2,0.1-0.3C45.6,28.8,45.7,28.8,45.8,28.8z
	 M47,34v-0.3l0.4,0l0.1-0.1v-2.7H47v-0.2l0.9-0.3h0.3v0.4c0.3-0.2,0.5-0.3,0.7-0.3c0.2-0.1,0.3-0.1,0.5-0.1c0.3,0,0.6,0.1,0.7,0.3
	c0.2,0.2,0.3,0.5,0.3,0.8v2.1l0.1,0.1l0.4,0V34h-1.6v-0.3l0.4,0l0.1-0.1v-2c0-0.3-0.1-0.5-0.2-0.6c-0.1-0.1-0.3-0.2-0.6-0.2
	c-0.1,0-0.2,0-0.4,0.1c-0.1,0-0.3,0.1-0.4,0.2v2.5l0.1,0.1l0.4,0V34H47z M52.5,33.8c-0.2,0.1-0.4,0.2-0.5,0.3
	c-0.1,0.1-0.2,0.3-0.2,0.4c0,0.2,0.1,0.4,0.3,0.6c0.2,0.1,0.4,0.2,0.7,0.2c0.3,0,0.6-0.1,0.8-0.2c0.2-0.2,0.3-0.3,0.3-0.6
	c0-0.2,0-0.3-0.1-0.4c-0.1-0.1-0.3-0.2-0.6-0.2L52.5,33.8z M52.8,30.7c-0.2,0-0.4,0.1-0.5,0.2c-0.1,0.2-0.2,0.4-0.2,0.7
	c0,0.3,0.1,0.5,0.2,0.7c0.1,0.2,0.3,0.2,0.5,0.2c0.2,0,0.4-0.1,0.5-0.2c0.1-0.2,0.2-0.4,0.2-0.7c0-0.3-0.1-0.5-0.2-0.7
	C53.2,30.8,53,30.7,52.8,30.7z M53.7,30.6h1.1V31h-0.8c0.1,0.1,0.1,0.2,0.2,0.3c0,0.1,0.1,0.2,0.1,0.4c0,0.3-0.1,0.6-0.4,0.8
	c-0.3,0.2-0.6,0.3-1,0.3h-0.1c0,0.1,0,0.1-0.1,0.2c0,0.1,0,0.1,0,0.2c0,0,0,0.1,0,0.1c0,0,0,0.1,0,0.1l0.7,0.1
	c0.5,0.1,0.8,0.2,1,0.3c0.2,0.1,0.3,0.3,0.3,0.6c0,0.1,0,0.3-0.1,0.4c-0.1,0.1-0.2,0.3-0.3,0.4c-0.2,0.2-0.4,0.3-0.7,0.4
	c-0.3,0.1-0.5,0.1-0.8,0.1c-0.4,0-0.8-0.1-1-0.3c-0.2-0.2-0.4-0.4-0.4-0.7c0-0.2,0.1-0.4,0.2-0.6c0.1-0.2,0.3-0.3,0.6-0.3
	c0-0.1,0-0.1-0.1-0.2c0-0.1,0-0.1,0-0.2c0-0.1,0-0.2,0.1-0.3c0.1-0.1,0.1-0.2,0.3-0.4c-0.3-0.1-0.5-0.2-0.7-0.4
	c-0.2-0.2-0.2-0.4-0.2-0.7c0-0.4,0.1-0.7,0.4-0.9c0.3-0.2,0.6-0.3,1-0.3c0.1,0,0.3,0,0.4,0.1C53.4,30.5,53.6,30.5,53.7,30.6z
	 M55.9,28.6h0.3v2.3c0.3-0.2,0.5-0.3,0.7-0.3c0.2-0.1,0.3-0.1,0.5-0.1c0.3,0,0.6,0.1,0.7,0.3c0.2,0.2,0.3,0.5,0.3,0.8v2.1l0.1,0.1
	l0.4,0V34h-1.6v-0.3l0.3,0l0.1-0.1v-2c0-0.3-0.1-0.5-0.2-0.6c-0.1-0.1-0.3-0.2-0.6-0.2c-0.1,0-0.2,0-0.4,0.1c-0.1,0-0.3,0.1-0.4,0.2
	v2.5l0.1,0.1l0.4,0V34H55v-0.3l0.4,0l0.1-0.1v-4.5H55v-0.2L55.9,28.6z M60.1,30.4h0.3v2.5c0,0.3,0.1,0.5,0.2,0.6
	c0.1,0.1,0.3,0.2,0.5,0.2c0.1,0,0.3,0,0.4-0.1c0.1,0,0.3-0.1,0.4-0.2v-2.5h-0.5v-0.2l0.9-0.3h0.3v3.2l0.1,0.1l0.3,0V34h-1.1v-0.4
	c-0.2,0.2-0.4,0.3-0.6,0.4c-0.2,0.1-0.4,0.1-0.6,0.1c-0.3,0-0.6-0.1-0.7-0.3c-0.2-0.2-0.3-0.5-0.3-0.8v-2.1h-0.5v-0.2L60.1,30.4z
	 M65.7,33.4v-1.3c-0.6,0.2-1,0.3-1.2,0.5c-0.2,0.1-0.3,0.3-0.3,0.6c0,0.2,0.1,0.3,0.2,0.4c0.1,0.1,0.3,0.2,0.4,0.2
	c0.1,0,0.2,0,0.4-0.1C65.4,33.6,65.5,33.5,65.7,33.4z M65.7,33.6c-0.2,0.2-0.5,0.3-0.7,0.4c-0.2,0.1-0.4,0.1-0.6,0.1
	c-0.3,0-0.5-0.1-0.7-0.3c-0.2-0.2-0.3-0.4-0.3-0.7c0-0.3,0.1-0.6,0.4-0.7c0.3-0.2,0.9-0.4,1.8-0.6v-0.2c0-0.3-0.1-0.5-0.2-0.6
	c-0.1-0.1-0.3-0.2-0.5-0.2c-0.1,0-0.2,0-0.3,0c-0.1,0-0.2,0-0.3,0.1v0.6H64c-0.1,0-0.1,0-0.2,0c0,0,0-0.1,0-0.2
	c0-0.2,0.1-0.4,0.4-0.6c0.3-0.2,0.6-0.2,1.1-0.2c0.4,0,0.7,0.1,0.8,0.3c0.2,0.2,0.3,0.4,0.3,0.8v2.2l0.1,0.1l0.4,0V34h-1L65.7,33.6z
	 M69.3,29.1h1.8v0.3l-0.5,0l-0.1,0.1v2.7c0,0.5,0.1,0.9,0.3,1.1c0.2,0.2,0.5,0.3,1,0.3c0.5,0,0.8-0.1,1-0.4c0.2-0.2,0.3-0.6,0.3-1.1
	v-2.6L73,29.4l-0.4-0.1v-0.3h1.6v0.3l-0.4,0.1l-0.1,0.1v2.7c0,0.4,0,0.6-0.1,0.8c-0.1,0.2-0.1,0.4-0.2,0.5c-0.1,0.2-0.4,0.3-0.6,0.4
	c-0.3,0.1-0.6,0.2-0.9,0.2c-0.3,0-0.6-0.1-0.9-0.2c-0.3-0.1-0.5-0.2-0.6-0.4c-0.1-0.1-0.2-0.3-0.3-0.5c0-0.2-0.1-0.5-0.1-0.8v-2.8
	l-0.1-0.1l-0.4,0V29.1z M74.4,34v-0.3l0.4,0l0.1-0.1v-2.7h-0.5v-0.2l0.9-0.3h0.3v0.4c0.3-0.2,0.5-0.3,0.7-0.3
	c0.2-0.1,0.3-0.1,0.5-0.1c0.3,0,0.6,0.1,0.7,0.3c0.2,0.2,0.3,0.5,0.3,0.8v2.1l0.1,0.1l0.4,0V34h-1.6v-0.3l0.4,0l0.1-0.1v-2
	c0-0.3-0.1-0.5-0.2-0.6c-0.1-0.1-0.3-0.2-0.6-0.2c-0.1,0-0.2,0-0.4,0.1c-0.1,0-0.3,0.1-0.4,0.2v2.5l0.1,0.1l0.4,0V34H74.4z
	 M79.5,30.4h0.3v3.2l0.1,0.1l0.4,0V34h-1.7v-0.3l0.4,0l0.1-0.1v-2.7h-0.5v-0.2L79.5,30.4z M79.6,28.8c0.1,0,0.2,0,0.3,0.1
	C80,29,80,29.1,80,29.2c0,0.1,0,0.2-0.1,0.3c-0.1,0.1-0.2,0.1-0.3,0.1c-0.1,0-0.2,0-0.3-0.1c-0.1-0.1-0.1-0.2-0.1-0.3
	c0-0.1,0-0.2,0.1-0.3C79.4,28.8,79.5,28.8,79.6,28.8z M80.5,30.5h1.6v0.3l-0.4,0l-0.1,0.1l0.9,2.4l0.9-2.4l-0.1-0.1l-0.4,0v-0.3h1.3
	v0.3l-0.4,0.1L82.5,34h-0.4l-1.2-3.2l-0.5,0V30.5z"/>
</svg>
